<svg clip-rule="evenodd" fill-rule="evenodd" height="215" image-rendering="optimizeQuality" shape-rendering="geometricPrecision" text-rendering="geometricPrecision" viewBox="0 0 538.33 458.72" width="252" xmlns="http://www.w3.org/2000/svg"><path d="m515.2 387.29-204.76-363.48c-17.46-31.75-65.08-31.75-82.54 0l-204.75 363.48c-17.46 31.75 4.76 71.43 41.27 71.43h407.93c38.09-1.59 60.31-39.68 42.85-71.43zm-246.03-339.67 204.76 363.48h-409.51z" fill="#e24c4b"/><path d="m235.84 214.28 12.7 84.13c1.59 9.52 9.52 17.46 20.63 17.46 9.53 0 19.05-7.94 20.64-17.46l12.7-84.13c3.17-20.63-12.7-38.09-33.33-38.09-20.64 0-34.93 17.46-33.34 38.09z" fill="#3f4448"/><circle cx="269.17" cy="352.37" fill="#3f4448" r="19.05"/><g fill="#e24c4b"><rect height="58.68" rx="4.06" transform="matrix(.865855 -.500295 .500295 .865855 105.422 29.2695)" width="37.34"/><rect height="58.68" rx="4.06" transform="matrix(.260611 .965444 -.965444 .260611 55.7326 213.021)" width="37.34"/><rect height="58.68" rx="4.06" transform="matrix(.384686 -.923048 .923048 .384686 9.69728 131.958)" width="37.34"/><rect height="58.68" rx="4.06" transform="matrix(-.865855 -.500295 -.500295 .865855 432.905 29.2695)" width="37.34"/><rect height="58.68" rx="4.06" transform="matrix(-.260611 .965444 .965444 .260611 482.595 213.021)" width="37.34"/><rect height="58.68" rx="4.06" transform="matrix(-.384686 -.923048 -.923048 .384686 528.63 131.958)" width="37.34"/></g></svg>