<svg clip-rule="evenodd" fill-rule="evenodd" height="523" image-rendering="optimizeQuality" shape-rendering="geometricPrecision" text-rendering="geometricPrecision" viewBox="0 0 314.6 262.45" width="627" xmlns="http://www.w3.org/2000/svg"><path d="m314.6 262.26c0 .11-70.43.19-157.29.19s-157.31-.08-157.31-.19 70.42-.19 157.31-.19c86.88 0 157.29.09 157.29.19z" fill="#263238"/><path d="m270.61 49.37-1.56-2.53c-13.09-21.3-36.75-34.14-61.69-32.59-3.2.19-6.39.64-9.53 1.3-22.68 4.79-42.41 21.73-50.56 43.42-4.81 12.76-6.15 27.45-15.28 37.57-11.88 13.19-32.06 13.6-49.79 13.06-17.73-.55-37.92-.08-49.75 13.14-7.41 8.29-9.76 20.07-9.16 31.17 1.58 29.37 22.31 55.65 48.68 68.7 26.37 13.06 57.41 14.23 86.26 8.49 40.42-8.06 78.87-30.15 101.97-64.27 23.11-34.13 28.92-80.63 10.41-117.46z" fill="#ebebeb"/><path d="m257.41 243.08c.03-.1.08-.21.13-.31.1-.22.24-.51.41-.88.51-1.14.92-2.33 1.22-3.55.81-3.15 1.1-7.96-.1-13.68-.64-3.11-1.5-6.2-2.54-9.2-1.06-3.26-2.32-6.72-3.34-10.46-1.09-3.72-1.65-7.59-1.65-11.46 0-.19 0-.39 0-.57.16-4.26 1.42-8.51 2.8-12.74 1.39-4.24 2.81-8.36 3.24-12.54.09-.74.13-1.49.13-2.24 0-3.27-.84-6.48-2.43-9.34-1.83-3.37-4.14-6.27-5.86-9.26-1.61-2.77-2.81-5.78-3.53-8.91-.55-2.43-.84-4.93-.84-7.43 0-2.13.21-4.27.61-6.36.33-1.67.82-3.3 1.47-4.87-.02.11-.05.22-.09.32l-.29.93c-.25.82-.58 2.05-.9 3.66-.35 1.97-.53 3.98-.53 5.99 0 2.59.3 5.18.89 7.71.73 3.09 1.93 6.06 3.54 8.79 1.72 2.93 4.04 5.87 5.91 9.26 1.64 2.92 2.5 6.21 2.5 9.55 0 .76-.04 1.52-.13 2.27-.43 4.23-1.87 8.4-3.25 12.63s-2.63 8.43-2.78 12.61c-.01.21-.01.44-.01.65 0 3.82.55 7.61 1.62 11.27 1 3.72 2.23 7.18 3.29 10.46 1.03 3.01 1.88 6.12 2.49 9.24 1.17 5.76.84 10.63 0 13.79-.32 1.21-.76 2.4-1.31 3.54l-.45.87c-.06.09-.14.18-.22.26z" fill="#263238"/><path d="m251.76 149.81s-3.5-11.22 2.78-17.79c.08-.08.18-.12.29-.12.19 0 .35.13.38.31.34 1.86.76 7.5-3.45 17.6z" fill="#de73f1"/><path d="m253.86 135.76c-.01.69-.09 1.39-.23 2.06-.24 1.43-.51 3.1-.8 4.95s-.56 3.53-.79 4.95c-.06.69-.19 1.38-.37 2.05-.03-.29-.04-.57-.04-.86 0-.41.03-.82.09-1.22.11-1.28.34-3.04.66-4.98.31-1.93.65-3.66.93-4.93.1-.69.29-1.37.55-2.02z" fill="#263238"/><path d="m255.88 176.27s2.15-11.56 10.78-14.42c.04-.01.08-.02.13-.02.21 0 .38.17.38.39 0 .04 0 .08-.01.12-.58 1.78-2.84 6.96-11.28 13.93z" fill="#de73f1"/><path d="m264.31 164.82c-.34.61-.73 1.19-1.18 1.72l-3.02 4-3.01 4c-.37.58-.81 1.14-1.28 1.64.27-.65.61-1.26 1.03-1.82.73-1.08 1.72-2.53 2.93-4.09 1.2-1.56 2.29-2.93 3.12-3.93.41-.55.88-1.07 1.41-1.52z" fill="#263238"/><path d="m253.55 205.23s-1.31-11.68 6.12-16.92c.07-.05.15-.08.24-.08.21 0 .38.17.38.38v.02c-.02 1.88-.69 7.49-6.74 16.6z" fill="#de73f1"/><path d="m258.31 191.85c-.13.68-.34 1.35-.62 1.98l-1.73 4.71c-.65 1.76-1.22 3.34-1.72 4.7-.18.67-.43 1.32-.73 1.94.07-.69.22-1.38.46-2.03.35-1.24.91-2.94 1.59-4.77s1.35-3.48 1.86-4.66c.23-.65.53-1.28.89-1.87z" fill="#263238"/><path d="m260.05 234.38s-.88-11.72 6.73-16.69c.06-.04.14-.07.22-.07.21 0 .38.18.38.39v.02c-.08 1.88-.95 7.47-7.33 16.35z" fill="#de73f1"/><path d="m265.27 221.18c-.17.68-.4 1.33-.7 1.96-.54 1.34-1.19 2.93-1.9 4.64s-1.33 3.3-1.87 4.64c-.22.66-.5 1.3-.83 1.91.09-.69.28-1.37.53-2.02.41-1.22 1.02-2.89 1.77-4.7s1.46-3.43 2.01-4.59c.26-.65.59-1.26.98-1.84z" fill="#263238"/><path d="m246.72 139.95s-10.39-5.45-10.62-14.53c0 0 0 0 0-.01 0-.21.18-.39.4-.39.07 0 .14.02.21.06 1.54 1.07 5.84 4.76 10.01 14.87z" fill="#de73f1"/><path d="m238.26 128.54c.49.5.92 1.05 1.3 1.63.85 1.17 1.84 2.55 2.93 4.06l2.93 4.05c.45.53.85 1.1 1.19 1.71-.54-.45-1.02-.96-1.43-1.52-.83-.98-1.91-2.39-3.06-3.98-1.14-1.59-2.14-3.06-2.83-4.14-.41-.57-.75-1.17-1.03-1.81z" fill="#263238"/><path d="m257.91 164.04s-10.73-4.8-11.48-13.87c-.01-.01-.01-.02-.01-.03 0-.22.18-.39.39-.39.07 0 .14.02.2.06 1.61.97 6.11 4.38 10.9 14.23z" fill="#de73f1"/><path d="m248.79 153.16c.51.46.98.99 1.39 1.55l3.18 3.87 3.19 3.87c.47.5.91 1.05 1.29 1.63-.57-.41-1.08-.89-1.53-1.43-.88-.94-2.05-2.27-3.29-3.79-1.24-1.51-2.32-2.93-3.08-3.96-.45-.54-.84-1.12-1.15-1.74z" fill="#263238"/><path d="m251.72 190.92s-7.33-9.16-3.91-17.58c.06-.15.2-.25.36-.25.13 0 .26.07.33.19 1.02 1.59 3.46 6.69 3.22 17.64z" fill="#de73f1"/><path d="m248.55 177.06c.25.65.43 1.33.54 2.01.31 1.41.67 3.07 1.07 4.9.39 1.83.76 3.48 1.07 4.89.2.66.33 1.35.41 2.04-.33-.62-.57-1.28-.74-1.96-.36-1.24-.8-2.94-1.21-4.88-.41-1.95-.73-3.67-.93-4.93-.14-.65-.21-1.31-.21-1.97 0-.03 0-.07 0-.1z" fill="#263238"/><path d="m259.04 222.51s-10.64-4.97-11.24-14.05c-.01-.01-.01-.02-.01-.03 0-.22.18-.39.39-.39.08 0 .15.02.21.06 1.58 1 6.02 4.5 10.65 14.41z" fill="#de73f1"/><path d="m250.08 211.48c.5.48.96 1.01 1.37 1.58l3.11 3.92 3.12 3.92c.47.51.89 1.07 1.26 1.66-.54-.43-1.04-.93-1.46-1.47-.88-.95-2.02-2.31-3.24-3.85-1.21-1.53-2.27-2.96-3.01-4.01-.45-.54-.84-1.12-1.15-1.75z" fill="#263238"/><path d="m280.23 176.32v.25.74c0 .73-.07 1.66-.13 2.85-.13 2.5-.33 6-.55 10.18-.74 4.25-2.93 8.96-5.87 13.54-2.13 3.37-4.39 6.43-6.3 9.28-1.73 2.5-3.31 5.13-4.68 7.85-.9 1.83-1.64 3.75-2.19 5.72-.18.7-.33 1.25-.41 1.62-.04.2-.09.39-.15.57 0-.19.02-.39.07-.58.05-.38.16-.94.33-1.65.49-2.01 1.19-3.97 2.09-5.83 1.36-2.73 2.92-5.38 4.66-7.89 1.92-2.87 4.14-5.94 6.27-9.29 2.89-4.56 5.05-9.19 5.86-13.38.29-4.17.53-7.66.73-10.16.1-1.19.18-2.13.24-2.85 0-.29.05-.54.07-.73-.02-.08-.04-.16-.04-.24z" fill="#263238"/><path d="m273.89 203.04s4.51-10.85-1.16-17.97c-.07-.09-.18-.15-.31-.15-.17 0-.32.12-.37.29-.5 1.81-1.44 7.39 1.84 17.83z" fill="#de73f1"/><path d="m273.07 188.86c.19.67.31 1.36.36 2.06.16 1.27.34 3.04.47 4.99.14 1.96.21 3.73.21 5.02.01.18.02.36.02.54 0 .52-.05 1.03-.14 1.54-.12-.66-.19-1.33-.19-2 0-.02 0-.05 0-.07-.09-1.47-.21-3.13-.34-5-.12-1.87-.24-3.56-.34-5-.05-.43-.08-.86-.08-1.3 0-.26.01-.52.03-.78z" fill="#263238"/><path d="m273.89 203.04s4.51-10.85-1.16-17.97c-.07-.09-.18-.15-.31-.15-.17 0-.32.12-.37.29-.5 1.81-1.44 7.39 1.84 17.83z" fill-opacity=".301961"/><path d="m259.93 229.19s3.61-11.18-2.62-17.81c-.07-.08-.17-.12-.28-.12-.19 0-.34.12-.38.3-.35 1.85-.83 7.49 3.28 17.63z" fill="#de73f1"/><path d="m257.96 215.1c.25.65.43 1.34.53 2.03.26 1.25.58 3 .88 4.94.3 1.93.5 3.7.61 4.98.06.4.08.8.08 1.2 0 .29-.01.59-.04.89-.17-.67-.29-1.36-.35-2.05-.21-1.43-.46-3.1-.74-4.96-.27-1.85-.53-3.52-.73-4.95-.15-.68-.23-1.38-.24-2.08z" fill="#263238"/><path d="m259.93 229.19s3.61-11.18-2.62-17.81c-.07-.08-.17-.12-.28-.12-.19 0-.34.12-.38.3-.35 1.85-.83 7.49 3.28 17.63z" fill-opacity=".301961"/><path d="m279.64 189.78s9.62-6.74 8.65-15.79c-.02-.19-.19-.34-.39-.34-.09 0-.18.03-.26.1-1.39 1.26-5.15 5.45-8 16.03z" fill="#de73f1"/><path d="m279.64 189.78s9.62-6.74 8.65-15.79c-.02-.19-.19-.34-.39-.34-.09 0-.18.03-.26.1-1.39 1.26-5.15 5.45-8 16.03z" fill-opacity=".301961"/><path d="m286.55 177.37c-.19.67-.46 1.32-.8 1.93-.55 1.16-1.35 2.74-2.28 4.47s-1.83 3.26-2.52 4.35c-.33.6-.75 1.17-1.22 1.68.26-.64.58-1.26.95-1.84.69-1.27 1.51-2.75 2.4-4.4l2.39-4.4c.3-.63.66-1.23 1.07-1.79z" fill="#263238"/><path d="m263.81 218.1s11.61-1.81 14.72-10.35c.02-.05.02-.09.02-.14 0-.21-.17-.39-.38-.39-.04 0-.07.01-.1.01-1.81.55-7.06 2.63-14.26 10.87z" fill="#de73f1"/><path d="m263.81 218.1s11.61-1.81 14.72-10.35c.02-.05.02-.09.02-.14 0-.21-.17-.39-.38-.39-.04 0-.07.01-.1.01-1.81.55-7.06 2.63-14.26 10.87z" fill-opacity=".301961"/><path d="m275.48 210.01c-.47.51-1 .98-1.57 1.37-1 .81-2.42 1.88-4.01 3.02s-3.07 2.12-4.17 2.79c-.57.4-1.2.73-1.85.98.52-.47 1.08-.88 1.68-1.24l4.09-2.89 4.08-2.93c.54-.43 1.13-.8 1.75-1.1z" fill="#263238"/><path d="m252.73 239.47-3.38 22.79h21.1l-2.73-22.79z" fill="#455a64"/><path d="m268.57 246.53c0 .12-3.81.22-8.51.22-4.69 0-8.51-.1-8.51-.22 2.12-.16 4.29-.25 6.42-.25.69 0 1.42.02 2.1.03.67-.01 1.39-.03 2.08-.03 2.13 0 4.3.09 6.42.25z" fill="#263238"/><path d="m268.98 248.34c0 .13-3.93.22-8.79.22s-8.8-.09-8.8-.22c0-.12 3.94-.22 8.8-.22s8.79.1 8.79.22z" fill="#263238"/><path d="m108.64 91.7h102.74v79.24h-102.74z" fill="#de73f1"/><path d="m108.64 91.7 18.98 17.71h101l-17.24-17.71z" fill="#de73f1"/><g fill="#263238"><path d="m108.64 91.7 102.77-.18h.08l.06.05 17.06 17.52.18.18.31.33h-.45l-101-.08h-.05l-18.96-17.82 19.05 17.59h-.08l101-.07-.13.32-.18-.18-17.06-17.53.14.06z"/><path d="m139.5 128.25c-1.14.04-2.04.98-2.04 2.12 0 1.17.95 2.13 2.12 2.13s2.13-.96 2.13-2.13c0-1.14-.91-2.08-2.05-2.12z"/><path d="m163.78 128.25c-1.14.04-2.04.97-2.04 2.11 0 1.17.95 2.12 2.12 2.12s2.12-.95 2.12-2.12c0-1.14-.9-2.07-2.04-2.11z"/><path d="m163.92 147.21c-.42-1.62-1.11-3.16-2.04-4.55-1.02-1.49-2.35-2.76-3.88-3.72-1.94-1.29-4.22-1.98-6.55-1.98-2.11 0-4.18.57-6 1.63-1.58.88-2.97 2.08-4.08 3.51-1.01 1.34-1.78 2.84-2.28 4.44 0-.12.02-.24.05-.35.07-.33.17-.66.28-.98.4-1.17.99-2.28 1.73-3.28 1.11-1.49 2.51-2.74 4.13-3.66 1.87-1.11 4-1.7 6.18-1.7 2.4 0 4.74.71 6.73 2.05 1.56 1 2.89 2.33 3.91 3.87.7 1.03 1.23 2.17 1.56 3.37.09.33.17.66.22.99.02.12.04.24.04.36z"/></g><path d="m108.87 92.57 18.18 23.04h84.33v-6.2h-83.76z" fill-opacity=".501961"/><path d="m191.12 170.77c-.1 0-.19-13.78-.19-30.78 0-16.99.09-30.77.19-30.77s.2 13.77.2 30.77-.09 30.78-.2 30.78z" fill="#263238"/><path d="m198.2 152.8h9.06v10.24h-9.06z" fill="#f5f5f5"/><path d="m108.64 91.7-21.09 17.71h21.09z" fill="#de73f1"/><path d="m108.64 91.7-21.09 17.71h21.09z" fill-opacity=".4"/><path d="m96.28 170.95h118.13v91.11h-118.13z" fill="#de73f1"/><path d="m96.28 262.06h118.14v-91.11h-118.14z" fill-opacity=".301961"/><path d="m184.82 261.42c-.1 0-.19-20.31-.19-45.36 0-25.04.09-45.36.19-45.36s.19 20.31.19 45.36c0 25.06-.09 45.36-.19 45.36z" fill="#263238"/><path d="m195.34 241.32h9.06v10.24h-9.06z" fill="#f5f5f5"/><path d="m132.32 171.19h13.42v19.44h-13.42z" fill="#263238"/><path d="m132.32 242.35h13.42v19.44h-13.42z" fill="#263238"/><path d="m213.39 170.95h-.31-.88l-3.41.03-12.55.06-41.4.1-41.41-.05-12.54-.06-3.41-.04h-.89-.31.31.89l3.41-.04 12.54-.05 41.41-.06 41.4.06 12.55.05 3.41.04h.88z" fill="#263238"/><path d="m117.95 88.69-12.87-3.16h.09c-3.32 2.1-7.16 3.26-11.1 3.33-.03 0-.07 0-.1 0-2.3 0-4.58-.34-6.78-1-8-2.57-13.79-9.57-14.82-17.91-.11-.89-.17-1.8-.17-2.69 0-5.37 2.04-10.55 5.7-14.48 1.11-1.23 2.37-2.33 3.73-3.27.69-.43 1.38-.88 2.1-1.25l1.09-.53.54-.27.57-.2c2.49-.96 5.15-1.46 7.82-1.46.47 0 .96.02 1.43.04 8.63.56 16.08 6.26 18.88 14.44.76 2.24 1.16 4.58 1.18 6.95v.1c0 3.89-1.07 7.71-3.08 11.04v-.11c3.57 6.45 5.38 9.71 5.78 10.43-.42-.73-2.29-3.93-5.99-10.33v-.05-.06c1.92-3.25 2.94-6.97 2.94-10.75 0-.08-.01-.17-.01-.24-.03-2.33-.44-4.64-1.2-6.83-2.77-8.01-10.07-13.59-18.53-14.14-.46-.03-.92-.05-1.38-.05-2.63 0-5.24.49-7.68 1.44l-.56.2-.54.26-1.07.51c-.73.38-1.37.81-2.06 1.23-1.33.92-2.56 1.99-3.66 3.18-3.59 3.86-5.6 8.95-5.6 14.23 0 .87.06 1.76.17 2.63.68 5.56 3.54 10.63 7.94 14.09 1.96 1.56 4.2 2.75 6.59 3.52 2.19.67 4.46 1.01 6.75 1.01h.02c3.88-.04 7.69-1.15 10.99-3.21h.04.08z" fill="#263238"/><path d="m91.99 57.79.65 10.77c.06.88.76 1.58 1.64 1.64h.1c.89 0 1.64-.67 1.74-1.56l1.19-10.79c.01-.05.01-.1.01-.15 0-.76-.61-1.37-1.37-1.37-.01 0-.02 0-.02 0h-2.62c-.74.02-1.32.63-1.32 1.36z" fill="#de73f1"/><path d="m97.12 76.21c-.36 1.07-1.36 1.8-2.49 1.8-1.45 0-2.62-1.18-2.62-2.63s1.17-2.62 2.62-2.62c.28 0 .56.04.83.13 1.07.36 1.8 1.36 1.8 2.49 0 .28-.05.56-.14.83z" fill="#de73f1"/><path d="m158.73 89.32c7.14-1.03 13.67-5.63 17.84-11.42 1.94-2.7 3.38-5.74 4.23-8.96.53-1.78.8-3.64.8-5.5 0-1.27-.12-2.54-.37-3.78-1.29-5.15-6.06-8.2-11.1-8.84-.73-.1-1.47-.15-2.21-.15-1.83 0-3.66.3-5.4.89-2.53.87-4.74 2.51-6.29 4.69-.98 1.17-1.59 2.59-1.77 4.1v.06c0 1.2.91 2.21 2.11 2.33.19.02.38.03.57.03 1.32 0 2.61-.39 3.72-1.11 1.54-.87 2.91-2.03 4.01-3.42 2.36-2.91 4.13-6.27 5.2-9.87.38-1.53.57-3.11.57-4.69s-.19-3.16-.57-4.69c-.57-3.23-2.05-6.23-4.25-8.65-2.53-2.3-5.75-3.72-9.15-4.03-1-.14-2.02-.21-3.03-.21-2.4 0-4.78.39-7.06 1.15-1.42.43-2.74 1.15-3.87 2.12-.81.75-1.73 1.99-1.4 3.21s2.11 1.77 3.32 1.61c1.79-.34 3.44-1.23 4.7-2.55 1.4-1.38 2.6-2.96 3.54-4.69.69-1.24 1.06-2.63 1.06-4.05 0-.01 0-.02 0-.03-.12-5.95-6.71-9.8-11.86-10.89-1.03-.22-2.08-.32-3.12-.32-.37 0-.75.01-1.12.04-.48 0-.19.78.2.76.23-.01.47-.02.7-.02 2.54 0 5.04.63 7.28 1.82 2.42 1.11 4.45 2.92 5.83 5.19.58 1.06.89 2.24.89 3.45 0 1.35-.39 2.68-1.11 3.82-.92 1.6-2.07 3.07-3.4 4.34-1.12 1.01-2.82 2.19-4.39 2.08-.53-.01-1.01-.31-1.24-.78-.01-.1-.02-.21-.02-.31 0-.52.21-1.03.58-1.4.83-.9 1.85-1.59 2.99-2.01 2.4-1 4.97-1.51 7.57-1.51.45 0 .9.01 1.34.04 3.14.06 6.19 1.04 8.78 2.82 2.24 1.87 3.85 4.4 4.56 7.24.65 2.06.98 4.22.98 6.38 0 .85-.05 1.7-.15 2.54-.56 3.02-1.72 5.89-3.41 8.45-1.74 2.88-3.92 5.64-7.19 6.76-.81.29-2.5.72-2.81-.46-.32-1.17.6-2.62 1.19-3.53 1.31-2.06 3.22-3.67 5.46-4.61 1.79-.71 3.7-1.08 5.62-1.08.41 0 .82.02 1.23.05 4.42.33 8.91 2.64 10.45 7.03.43 1.47.65 2.98.65 4.51 0 1.2-.14 2.4-.4 3.57-.55 2.92-1.61 5.73-3.11 8.3-3.24 5.45-8.14 9.74-13.99 12.2-1.39.6-2.81 1.11-4.27 1.58-.15.05-.08.43.09.4z" fill="#e0e0e0"/><path d="m128.87 7.79c-3.75-.27-8.93 2.69-7.09 4.84 1.84 2.16 6.73-1.33 6.73-1.33s-.46 4.37 1.13 4.87c1.6.49 3.76-3.68 2.16-6.34.58.22 1.19.34 1.8.34 1.04 0 2.06-.33 2.9-.94 2.27-1.68-.13-3.25-3.34-2.97 0 0 2.3-7.51-2.33-6.08-2.32.71-3.14 3.42-1.96 7.61z" fill="#de73f1"/><path d="m128.87 7.79c-3.75-.27-8.93 2.69-7.09 4.84 1.84 2.16 6.73-1.33 6.73-1.33s-.46 4.37 1.13 4.87c1.6.49 3.76-3.68 2.16-6.34.58.22 1.19.34 1.8.34 1.04 0 2.06-.33 2.9-.94 2.27-1.68-.13-3.25-3.34-2.97 0 0 2.3-7.51-2.33-6.08-2.32.71-3.14 3.42-1.96 7.61z" fill="#fff" fill-opacity=".65098"/><path d="m132.37 9.39c-.21-.21-.43-.4-.66-.58-.33-.25-.68-.5-1.01-.74-.31-.23-.65-.44-1-.63-.2-.11-.41-.21-.62-.3-.23-.11-.48-.16-.73-.16-.07 0-.14 0-.21.01-.25.01-.46.22-.46.47 0 .09.03.19.08.26.26.28.59.5.94.62l.51.28c.35.2.66.44.94.67.28.24.66.46.94.7.48.39 1.03.71 1.61.94.02.01.05.02.08.02s.06-.01.08-.02c.48-.38-.22-1.27-.49-1.54z" fill="#455a64"/></svg>