<svg clip-rule="evenodd" fill-rule="evenodd" height="438" image-rendering="optimizeQuality" shape-rendering="geometricPrecision" text-rendering="geometricPrecision" viewBox="0 0 124.91 100.64" width="544" xmlns="http://www.w3.org/2000/svg"><path d="m120.22 16.19-.69-1.11c-5.52-8.99-15.46-14.43-25.99-13.89-1.48.07-2.96.26-4.41.57-9.68 2.04-18.11 9.28-21.6 18.54-2.06 5.45-2.63 11.72-6.53 16.05-5.07 5.63-13.69 5.8-21.26 5.57-7.58-.24-16.2-.04-21.25 5.61-3.16 3.54-4.16 8.57-3.91 13.31.67 12.55 9.53 23.77 20.79 29.34 11.26 5.58 24.51 6.08 36.85 3.64 17.26-3.44 33.68-12.88 43.55-27.45 9.86-14.58 12.34-34.44 4.45-50.18z" fill="#e0e0e0"/><circle fill="#e0e0e0" r="66.7" transform="matrix(.161075 -.161075 .161075 .161075 36.2751 15.195)"/><path d="m22.02 18.53h86.14v61.52h-86.14z" fill="#263238"/><path d="m24.07 20.99h81.43v56.7h-81.43z" fill="#455a64"/><path d="m105.5 77.69c0-.45-.02-22.23-.06-56.7l.06.05-81.42.02.07-.07v56.7l-.06-.06 81.42.06-81.42.06h-.07v-.06c0-17.19 0-36.44 0-56.7v-.07h.08l81.42.01h.05v.05c-.05 34.48-.07 56.26-.07 56.71z" fill="#263238"/><path d="m19.22 80.05h93.68v2.45h-93.68z" fill="#263238"/><path d="m110.71 80.05c0 .04-16.61.07-37.07.07s-37.08-.03-37.08-.07 16.61-.07 37.08-.07 37.07.03 37.07.07z" fill="#455a64"/><path d="m24.39 20.87c-.42-.35-.82-.72-1.19-1.12-.4-.36-.79-.75-1.14-1.16.45.31.86.67 1.24 1.06.4.37.77.78 1.09 1.22z" fill="#455a64"/><path d="m108.47 79.97c-1-.65-1.93-1.43-2.76-2.3.49.35.96.73 1.4 1.13.48.36.93.76 1.36 1.17z" fill="#455a64"/><path d="m35.06 62.19c-.04 0-.07-5.67-.07-12.66 0-7 .03-12.66.07-12.66s.07 5.66.07 12.66c0 6.99-.03 12.66-.07 12.66z" fill="#fff"/><path d="m35.82 37.09c-.33-.47-.62-.96-.86-1.47h.12v.03c-.2.54-.45 1.07-.74 1.57.16-.55.37-1.1.61-1.63l.02-.03.05-.13.07.13c.28.48.53 1 .73 1.53z" fill="#fff"/><path d="m34.92 33.88c-.02.02-.23-.11-.4-.36-.16-.26-.2-.5-.17-.51s.13.2.29.43c.15.23.3.41.28.44z" fill="#fff"/><path d="m34.52 34.61c.08-.32.19-.62.32-.91.09-.31.22-.6.37-.89-.02.33-.11.65-.25.94-.09.31-.24.6-.44.86z" fill="#fff"/><path d="m33.25 40.2c.09-.25.17-.52.23-.78.01-.19.02-.38.02-.57 0-.08 0-.16 0-.24.08.19.13.4.13.6 0 .37-.14.72-.39.99z" fill="#fff"/><path d="m33.5 39.15c.01 0-.04.11-.2.15-.02.01-.05.01-.08.01-.21 0-.38-.17-.38-.38s.17-.38.38-.38h.05c.16.03.22.12.2.13-.01.01-.08-.04-.21-.03-.15.01-.26.13-.26.28s.12.27.27.27h.02c.13-.01.19-.07.21-.05z" fill="#fff"/><path d="m54.77 60.39c0 .04-4.85.07-10.83.07s-10.83-.03-10.83-.07 4.85-.07 10.83-.07c5.99 0 10.83.03 10.83.07z" fill="#fff"/><path d="m55 60.37c-.31-.06-.61-.15-.9-.29-.29-.09-.58-.23-.84-.41.61.15 1.2.38 1.74.7z" fill="#fff"/><path d="m55.23 60.45c-.22.14-.46.25-.71.32-.24.1-.5.17-.77.19.46-.25.96-.43 1.48-.51z" fill="#fff"/><path d="m34.04 61.08c.15.11.25.27.28.45.02.07.03.15.03.22 0 .13-.02.25-.07.37-.04.11-.12.21-.22.29-.06.05-.14.07-.22.07-.06 0-.13-.02-.19-.05-.19-.15-.31-.38-.31-.63 0-.01 0-.02 0-.03s0-.02 0-.03c0-.2.09-.39.24-.52.1-.08.22-.12.35-.12h.03c.1 0 .14.05.13.05 0 .01-.05 0-.13 0-.12.01-.23.06-.32.14-.11.12-.18.27-.18.43v.04.02c0 .21.1.4.26.53.04.02.09.04.13.04.05 0 .1-.02.13-.04.08-.06.15-.14.18-.23.05-.12.08-.24.08-.37 0-.05-.01-.1-.02-.15-.03-.17-.09-.33-.18-.48z" fill="#fff"/><path d="m51.69 61.36s.07-.04.18.05c.06.05.09.12.09.2v.01c-.01.11-.06.21-.13.28-.15.17-.43.23-.56.44-.03.05-.04.11-.04.18 0 .06.01.12.04.17.06.1.17.17.29.17.02 0 .03 0 .04-.01.13-.01.24-.1.29-.23.01-.04.01-.07.01-.11 0-.09-.03-.17-.09-.23-.07-.1-.17-.18-.28-.23-.12-.05-.21-.14-.26-.26-.01-.03-.01-.05-.01-.08 0-.08.03-.16.08-.23.05-.06.11-.1.18-.13.05-.02.09-.03.14-.03h.05c0 .02-.07.03-.16.08-.06.03-.11.07-.15.13-.03.04-.05.1-.05.16 0 .02.01.05.01.07.05.17.37.2.55.44.08.09.12.21.12.32 0 .05 0 .1-.02.15-.05.18-.21.3-.39.32-.02.01-.04.01-.05.01-.17 0-.33-.09-.41-.24-.04-.07-.07-.16-.07-.24s.03-.17.07-.24c.08-.11.19-.2.32-.26.1-.05.19-.11.28-.18.06-.05.1-.13.12-.21 0-.01 0-.02 0-.03 0-.05-.02-.1-.05-.14-.07-.1-.15-.08-.14-.1z" fill="#fff"/><path d="m51.62 60.86c-.04-.2-.06-.4-.06-.6s.02-.4.06-.6c.05.2.07.4.07.6s-.02.4-.07.6z" fill="#fff"/><path d="m57.42 60.43c-.11.04-.23.06-.35.06-.01 0-.02 0-.02 0l-.41.02c-.01 0-.01 0-.02 0-.02 0-.05-.01-.07-.02-.03-.02-.05-.05-.05-.09 0-.01 0-.02 0-.03.02-.05.04-.09.09-.12l.17-.19c.12-.09.2-.23.22-.38 0-.01 0-.02 0-.03 0-.1-.07-.2-.17-.23-.01 0-.03 0-.05 0-.06 0-.13.01-.18.04-.06.03-.1.04-.1.04-.01-.01.02-.04.07-.08.07-.06.17-.1.26-.1h.02c.16.04.28.18.28.34v.01c-.02.19-.1.36-.24.47l-.19.18c-.03.03-.05.06-.05.07s-.03 0-.02 0 0 0 0-.01h.03.41.03c.11 0 .23.01.34.05z" fill="#fff"/><path d="m37.95 60.39c-.01-.11-.01-.23-.01-.34 0-.01 0-.02 0-.03 0-.26 0-.59-.02-1-.02-.84-.03-2-.03-3.33l.06.06h-1.25c.13-.13.03-.04.06-.07v.36.35.68 1.28c0 .79-.01 1.49-.02 2.03l-.04-.04.92.03c.21 0 .34.01.34.01-.1.02-.2.02-.3.02-.01 0-.01 0-.02 0l-.94.02h-.04v-.04c0-.54-.02-1.24-.02-2.03 0-.4 0-.83 0-1.28v-1.39c.02-.03-.07.07.06-.06h1.33v.06c0 1.36-.02 2.55-.03 3.38 0 .4-.02.73-.02.98 0 .12-.01.23-.03.35z" fill="#fff"/><path d="m49.93 60.39c0-.02 0-.04 0-.07 0-.02 0-.05 0-.07 0-.11 0-.24 0-.4 0-.36-.01-.85-.02-1.45-.01-1.23-.03-2.94-.03-4.87l.07.07h-1.28c.13-.14.04-.04.07-.07v2.09 1.89c0 1.17-.02 2.15-.03 2.88l-.03-.04.92.02h.26.09s-.11 0-.32.02l-.94.02h-.04v-.04c0-.73-.01-1.71-.02-2.88 0-.58 0-1.22 0-1.89v-1.04c0-.17 0-.35 0-.51v-.54l.07-.07h1.32v.07c0 1.96-.01 3.69-.02 4.91 0 .6-.02 1.09-.02 1.44v.39c-.01.05-.03.1-.05.14z" fill="#fff"/><path d="m40.97 60.39c0-.03 0-.06 0-.09s0-.06.01-.09c0-.12 0-.29 0-.49 0-.44 0-1.06-.03-1.82 0-1.54-.01-3.66-.02-6.06l.06.07h-1.26c.14-.14.04-.04.07-.07v1.36 1.3 2.38c0 1.46-.02 2.67-.02 3.5l-.04-.03.93.02h.25.08c-.01 0-.02 0-.03 0-.02 0-.03 0-.04 0h-.24l-.95.02h-.03v-.04c0-.83 0-2.04-.03-3.5 0-.73 0-1.54 0-2.38 0-.42 0-.86 0-1.3v-1.36c.03-.03-.06.07.07-.07h1.33v.07c-.01 2.42-.02 4.56-.03 6.11 0 .75-.02 1.36-.02 1.8v.48c-.01.06-.03.13-.05.19z" fill="#fff"/><path d="m43.94 60.37c0-.02 0-.03 0-.04s0-.03 0-.04c0-.05 0-.11 0-.2 0-.18 0-.44 0-.78 0-.67-.01-1.63-.02-2.82 0-2.38-.02-5.68-.03-9.38l.07.07h-1.26c.13-.14.04-.04.07-.07v1.12 1.08 2.08 3.75c-.01 2.28-.02 4.1-.03 5.24l-.03-.03.93.02h.24.09-.08-.23l-.95.01h-.02v-.03c0-1.13-.02-2.96-.03-5.24 0-1.14 0-2.41 0-3.75 0-.67 0-1.36 0-2.07v-2.18c.03-.03-.07.07.06-.07h1.33v.07c-.01 3.72-.02 7.03-.03 9.43 0 1.18-.01 2.14-.02 2.81v.75.19c0 .05-.06.08-.06.08z" fill="#fff"/><path d="m46.98 60.37s0-.05 0-.12c0-.08 0-.2 0-.34 0-.31 0-.74 0-1.3 0-1.13 0-2.76-.02-4.77 0-4.03-.02-9.6-.03-15.83l.07.07h-1.26c.13-.14.04-.04.06-.07v3.85 3.65 6.49c-.01 3.89-.02 6.85-.03 8.36l-.02-.02.94.01h.24.08c-.01 0-.03 0-.04 0s-.02 0-.03 0h-.23-.96-.02v-.02c0-1.51-.02-4.47-.03-8.36 0-1.96 0-4.16 0-6.49 0-1.18 0-2.4 0-3.65v-3.82c.03-.03-.07.06.07-.07h1.27v.06c0 6.25-.02 11.84-.03 15.89 0 2-.01 3.63-.02 4.75v1.29.33c0 .03 0 .07-.01.11z" fill="#fff"/><path d="m55.6 79.13h8.93v.97h-8.93z" fill="#fafafa"/><path d="m68.03 68.79v11.3h19.42zm2.98 4.55 8.07 4.78h-8.07z" fill="#ff725e"/><path d="m69.9 69.88c-.08.25-.2.48-.35.69-.12.23-.28.44-.47.62.2-.48.47-.92.82-1.3z" fill="#263238"/><path d="m72.78 71.54c-.08.24-.19.46-.35.67-.11.22-.27.43-.46.6.19-.47.47-.9.81-1.27z" fill="#263238"/><path d="m75.66 73.19c-.1.24-.24.45-.42.64-.14.21-.31.39-.51.54.09-.23.23-.44.41-.63.26-.33.49-.57.52-.55z" fill="#263238"/><path d="m78.49 74.91c-.1.24-.24.45-.42.64-.14.21-.31.39-.52.54.1-.23.24-.44.42-.63.26-.32.49-.57.52-.55z" fill="#263238"/><path d="m81.44 76.61c-.08.24-.21.47-.38.67-.12.23-.29.43-.49.6.09-.24.22-.47.38-.67.13-.23.3-.43.49-.6z" fill="#263238"/><path d="m84.52 78.39c-.08.23-.19.45-.35.64-.11.22-.26.41-.45.57.07-.23.19-.45.34-.64.12-.22.27-.41.46-.57z" fill="#263238"/><path d="m71.74 70.93c.03.02-.03.18-.14.36-.12.18-.23.31-.26.29-.04-.02.03-.18.14-.36s.23-.31.26-.29z" fill="#263238"/><path d="m73.84 72.16c.03.02-.03.18-.14.36-.12.18-.23.32-.26.29-.04-.02.03-.18.14-.36s.23-.31.26-.29z" fill="#263238"/><path d="m74.79 72.69c.03.02-.04.18-.15.36s-.23.31-.26.29.03-.18.15-.36c.11-.18.22-.31.26-.29z" fill="#263238"/><path d="m76.68 73.87c.04.02-.03.18-.14.36-.12.18-.23.31-.26.29-.04-.02.03-.18.14-.36s.23-.32.26-.29z" fill="#263238"/><path d="m77.58 74.39c.04.02-.03.18-.14.36s-.23.31-.26.29.03-.18.15-.36c.11-.18.22-.31.25-.29z" fill="#263238"/><path d="m79.53 75.51c.03.02-.03.18-.15.37-.11.18-.22.31-.26.29-.03-.02.04-.18.15-.37.11-.18.23-.3.26-.29z" fill="#263238"/><path d="m80.57 76.13c.03.02-.03.18-.14.36s-.23.31-.26.29.03-.18.14-.36.23-.31.26-.29z" fill="#263238"/><path d="m82.45 77.23c.03.02-.03.18-.15.36-.11.18-.22.31-.26.29-.03-.02.04-.18.15-.36s.23-.31.26-.29z" fill="#263238"/><path d="m83.53 77.85c.03.02-.03.18-.14.36s-.23.31-.26.29.03-.18.14-.36c.12-.18.23-.31.26-.29z" fill="#263238"/><path d="m10.15 45.39c-.4-.76-1.19-1.24-2.04-1.24-1.29 0-2.32 1.04-2.32 2.32 0 1.29 1.03 2.32 2.32 2.32h.1c1.14-.05 2.07-.91 2.85-1.75z" fill="#263238"/><path d="m11.07 44.96c-.05-.23-.24-.39-.47-.39-.03 0-.06.01-.09.01-.25.07-.44.27-.5.52-.03.11-.04.21-.04.32 0 .14.02.29.07.43.1.37.28.73.52 1.04.16.21.42.42.67.32.25-.09.3-.45.28-.73-.06-.64-.25-1.25-.54-1.82z" fill="#ff725e"/><path d="m17.52 34.79c1.23-1.79 2.82-3.37 4.76-4.34 1.95-.96 4.27-1.27 6.33-.58 2.05.7 3.78 2.46 4.18 4.59.32 1.69.05 4.33 1.3 5.49 2.6 2.39 2.2 6.91.68 9.5 0 0-2.36 2.85.18 5.48 0 0 1.5 1.06.75 3.94-1.17 4.49 3.95 6.99.86 6.29l-10.34-1.14-1.16-11.72z" fill="#263238"/><path d="m11.43 41.12c-.65.47-.88 1.36-.82 2.16s.36 1.56.56 2.34c.21.77.32 1.62 0 2.37-.51 1.27-1.99 1.79-3.11 2.59-1.62 1.18-2.59 3.06-2.59 5.07 0 .15.01.3.02.46.05.62.2 1.27-.03 1.85-.26.66-.94 1.06-1.35 1.64-.65.91-.55 2.19-.05 3.19.49 1 1.32 1.78 2.14 2.55 3.81-3.31 8.08-6.1 12.65-8.26z" fill="#263238"/><path d="m9.99 46.03c-.22.02-.44.04-.66.04-.53.03-1.05.15-1.54.37-.47.23-.86.61-1.09 1.08-.08.2-.14.41-.19.62 0-.03-.01-.06-.01-.09s.01-.06.01-.09c.01-.16.05-.32.11-.48.23-.51.62-.92 1.13-1.16.49-.23 1.02-.34 1.56-.34h.02c.05-.01.11-.01.17-.01.16 0 .33.02.49.06z" fill="#455a64"/><path d="m50.09 57.72 5.07 1.63s3.51-2.16 3.71-2.95-.16-.92-.3-.9c0 0 1.25-1.1.59-2.1 0 0 1.12-1.18.37-1.88l-.41-.33s.54-1.09.11-1.91c-.11-.2-.32-.32-.54-.32-.08 0-.15.01-.23.04l-4.15 1.54-2.65 1.78z" fill="#ffbe9d"/><path d="m56.29 50.62 1.42-5.13 1.16-.11-1.1 4.08z" fill="#fafafa"/><path d="m50.54 56.12 1.24-4.14 4.49-3.35c.13.23.21.5.21.77s-.08.53-.21.77c-.48.84-1.16 1.53-1.31 1.77-.16.23-.8 1.45-.8 1.45.24.62.36 1.27.36 1.93 0 .5-.07 1.01-.22 1.49z" fill="#ffbe9d"/><path d="m54.3 56.81c.01-.08.02-.16.04-.24.02-.07.04-.17.05-.29.03-.13.05-.26.05-.39.02-.18.03-.37.03-.55s-.01-.36-.03-.54c-.04-.48-.15-.94-.33-1.38v-.03-.02l.56-1.05.16-.28.08-.15.1-.13.43-.52c.3-.37.57-.76.8-1.18.11-.21.16-.44.16-.67 0-.25-.06-.5-.19-.72l.09.01-.38.29-4.11 3.06.02-.03c-.38 1.23-.7 2.26-.92 3-.11.35-.21.63-.26.83l-.08.22c-.01.05-.02.07-.03.07 0-.02.01-.05.02-.08l.05-.22c.06-.21.14-.49.24-.84.22-.74.52-1.77.88-3.01v-.02h.02l4.09-3.08.39-.29.06-.04.03.06c.14.24.22.52.22.8 0 .25-.06.51-.18.73-.23.43-.51.83-.82 1.2l-.43.51c-.04.05-.07.09-.1.13l-.08.14-.15.28-.58 1.04v-.05c.18.46.29.94.32 1.42.02.15.02.3.02.44 0 .22-.01.44-.04.66-.01.14-.04.27-.06.4-.02.1-.04.19-.07.29-.02.07-.04.15-.07.22z" fill="#eb996e"/><path d="m59.12 51.2c-.09.08-.19.15-.3.2l-.84.52-1.25.74c-.24.17-.52.26-.81.26-.02 0-.03 0-.04 0-.17-.02-.33-.1-.44-.23-.1-.13-.15-.29-.15-.45 0-.01 0-.02 0-.03.04-.33.18-.63.39-.87.18-.22.38-.44.58-.65.34-.35.71-.66 1.11-.94.27-.19.56-.36.85-.51.1-.06.21-.1.33-.14-.1.07-.2.14-.31.19-.19.12-.48.29-.81.54-.39.28-.75.6-1.08.95-.2.2-.39.42-.56.64-.2.22-.33.49-.36.78-.01.01-.01.02-.01.03 0 .13.05.26.13.37.08.1.21.17.34.18h.06c.26 0 .51-.08.72-.23l1.27-.71.86-.47c.1-.06.21-.12.32-.17z" fill="#eb996e"/><path d="m59.18 53.4c-.08.08-.17.15-.26.21-.18.13-.44.31-.76.52-.38.26-.78.49-1.18.7-.12.08-.25.12-.39.15-.03 0-.05 0-.08 0-.13 0-.25-.04-.36-.11-.19-.17-.31-.42-.31-.68 0-.05.01-.11.02-.17.07-.29.22-.56.43-.78.19-.2.38-.39.59-.56.35-.3.72-.57 1.11-.81.32-.22.59-.38.78-.48.09-.07.19-.12.3-.16-.08.07-.17.14-.26.2l-.77.52c-.37.25-.73.54-1.07.83-.2.17-.4.36-.57.56-.2.19-.34.44-.4.71-.01.05-.02.1-.02.15 0 .22.1.42.26.57.08.06.18.09.28.09h.06c.12-.02.24-.07.35-.13.46-.23.85-.47 1.18-.67l.78-.49c.09-.06.19-.12.29-.17z" fill="#eb996e"/><path d="m58.58 55.5c-.07.06-.14.11-.22.16-.14.09-.34.22-.6.38-.31.18-.63.35-.96.48-.2.09-.41.15-.62.19-.03.01-.07.01-.1.01-.09 0-.18-.02-.26-.06-.12-.07-.2-.19-.21-.33 0-.03-.01-.07-.01-.1 0-.09.02-.18.04-.27.03-.11.1-.22.18-.31.14-.15.3-.3.47-.43.28-.22.57-.43.88-.61.26-.16.48-.28.63-.36.07-.04.16-.08.24-.1-.06.06-.14.11-.21.15l-.61.39c-.29.19-.58.4-.85.62-.29.26-.7.55-.63 1 .01.1.06.18.14.23.06.03.13.05.2.05.03 0 .06 0 .08-.01.21-.04.4-.09.59-.17.33-.13.65-.28.96-.46.28-.17.57-.32.87-.45z" fill="#eb996e"/><path d="m58.84 56.46c-.03.07-.07.14-.12.21-.12.18-.26.35-.41.52-.23.23-.47.45-.73.65-.15.11-.3.22-.47.33-.17.13-.36.23-.57.29-.04.01-.08.01-.12.01-.08 0-.15-.02-.22-.05-.11-.06-.18-.15-.22-.26-.02-.07-.03-.15-.03-.23 0-.13.03-.26.09-.38.13-.3.32-.59.54-.83.15-.17.33-.31.52-.42.07-.05.14-.08.22-.09-.52.33-.92.81-1.16 1.38-.05.09-.08.2-.08.31 0 .07.01.13.02.19.05.14.18.24.32.24.04 0 .07-.01.1-.02.18-.05.36-.14.52-.26.16-.11.32-.21.46-.32.26-.19.51-.4.74-.62.39-.38.57-.65.6-.65z" fill="#eb996e"/><path d="m49.69 57.58-6.23 13.32-5.45-7.11c-3.41-4.35-6.21-5.39-6.21-5.39l-4.95-1.32-10.13-.54-.88.51-6.11 2.57s.59 6.59 1.74 11.83c1.15 5.23 2.11 10.96 2.11 10.96.42 3.77-2.37 18.23-2.37 18.23h27.93l-5.97-17.97c.68-2.18 1.26-4.41 1.7-6.65v-.01l5.19 3.55s7.79 4.37 10.62-2.98l4.91-17.13z" fill="#ff725e"/><path d="m34.55 76.29c-.01-.06-.01-.13-.01-.19 0-.07 0-.13.01-.2 0-.12.01-.28 0-.45-.02-.18 0-.38 0-.61-.01-.51-.06-1.04-.12-1.55-.09-.63-.23-1.27-.4-1.88-.17-.62-.39-1.23-.64-1.82-.21-.48-.45-.94-.71-1.4-.1-.19-.22-.36-.31-.51-.09-.16-.18-.29-.26-.39s-.15-.21-.21-.33c.1.09.19.19.26.3.08.1.17.22.26.37s.22.32.33.52c.28.45.53.92.74 1.4.53 1.18.88 2.43 1.04 3.71.06.52.1 1.05.1 1.57v.01c0 .22 0 .43-.02.61-.01.17-.02.33-.03.45v.04c0 .12-.01.24-.03.35z" fill="#263238"/><path d="m33.54 65.24c.05.02-.17.6-.49 1.29-.16.43-.38.84-.63 1.22.14-.44.31-.87.52-1.28.16-.34.31-.65.42-.87.04-.13.11-.25.18-.36z" fill="#263238"/><path d="m43.91 74.73c-.13-.16-.22-.34-.29-.54-.19-.45-.31-.93-.37-1.42-.02-.19-.03-.39-.03-.59 0-.29.03-.59.08-.88.02-.2.07-.4.16-.58-.07.43-.1.88-.1 1.32 0 .24.01.48.03.72.1.67.27 1.33.52 1.97z" fill="#263238"/><g fill="#fafafa"><path d="m38.01 69.14c.02 0 .06.31.15.82.12.65.29 1.3.49 1.93s.46 1.26.75 1.85c.13.24.25.5.36.75.1.26-.06-.06-.14-.18s-.18-.3-.31-.51c-.63-1.19-1.06-2.49-1.24-3.82-.04-.26-.06-.47-.06-.61-.01-.03-.01-.07-.01-.11s0-.08.01-.12z"/><path d="m38.98 72.47c.15-.23.28-.47.4-.72.17-.4.26-.83.26-1.26 0-.23-.02-.46-.07-.68l-.02-.06.12.02c-.37.53-.61 1.15-.67 1.8-.05.49 0 .8-.03.8-.03-.07-.04-.14-.05-.21-.01-.13-.02-.27-.02-.4 0-.07 0-.14 0-.2.04-.67.27-1.32.66-1.87l.09-.12.04.14.01.07c.05.22.07.44.07.67 0 .46-.1.92-.3 1.34-.09.18-.2.36-.33.52-.09.11-.15.17-.16.16z"/><path d="m38.19 71.46c-.08-.01-.15-.04-.23-.08-.19-.09-.39-.2-.57-.32-.27-.18-.52-.39-.75-.63-.14-.13-.26-.28-.38-.44-.06-.08-.12-.17-.17-.26-.05-.07-.07-.14-.07-.22 0-.05.01-.09.02-.13.03-.07.1-.12.17-.14h.05c.05 0 .1.01.14.03.09.05.18.1.26.17.15.12.3.24.44.38.24.22.45.48.62.75.12.18.23.38.32.58.03.07.06.15.07.23-.02 0-.15-.31-.46-.75-.19-.26-.4-.5-.64-.72-.13-.13-.28-.25-.43-.36-.07-.06-.16-.12-.24-.16-.09-.03-.16-.02-.19.04v.07c0 .06.01.12.04.17.05.08.11.16.17.24.11.15.23.3.36.44.22.23.46.44.72.63.46.33.76.46.75.48z"/><path d="m38.54 73.64c-.06.03-.12.05-.19.06-.15.04-.3.05-.46.05-.02 0-.05 0-.08 0-.62-.02-1.2-.28-1.65-.71l-.08-.08.11-.03.18-.05c.18-.04.36-.06.54-.06.48 0 .94.13 1.34.38.17.1.32.23.46.37.09.1.13.17.12.17-.19-.17-.41-.32-.63-.46-.38-.21-.81-.32-1.25-.32-.19 0-.38.02-.56.06l-.17.05.03-.11c.42.4.97.65 1.55.7.05.01.1.01.15.01.2 0 .4-.01.59-.03z"/><path d="m16.38 74.69c.01.04.01.08.01.11 0 .04 0 .08-.01.12 0 .14-.03.35-.06.6-.09.66-.24 1.32-.45 1.96s-.48 1.26-.79 1.85c-.13.23-.24.41-.32.52s-.12.18-.13.18c.1-.25.23-.5.36-.74.29-.59.54-1.22.75-1.85.2-.63.37-1.28.49-1.93.09-.51.13-.82.15-.82z"/><path d="m15.41 78.03s-.07-.05-.16-.17c-.13-.16-.24-.33-.33-.51-.2-.42-.31-.88-.31-1.34 0-.23.03-.45.08-.67l.01-.07.03-.15.09.13c.39.55.62 1.19.66 1.86.01.07.01.13.01.2 0 .13-.01.27-.03.41 0 .07-.02.14-.05.21-.02 0 .03-.31-.02-.81-.07-.64-.3-1.26-.68-1.79l.12-.03v.07c-.04.22-.07.45-.07.68 0 .43.09.86.26 1.26.12.24.25.48.39.71z"/><path d="m16.19 77.01c0-.02.31-.15.75-.47.26-.19.5-.41.71-.64.13-.14.25-.28.36-.43.06-.08.12-.16.17-.25.03-.05.05-.11.05-.17 0-.02-.01-.04-.01-.07-.03-.06-.1-.07-.19-.03-.08.04-.16.09-.24.15-.15.11-.29.23-.43.36-.23.22-.44.46-.63.72-.31.45-.44.77-.47.76.02-.08.04-.16.08-.23.09-.21.19-.4.32-.58.17-.28.38-.53.62-.76.14-.13.29-.26.44-.38.08-.06.17-.12.26-.16.04-.02.09-.04.14-.04.01 0 .03.01.05.01.07.01.13.06.17.13.01.04.02.08.02.13 0 .08-.03.16-.07.23-.05.09-.11.17-.18.26-.31.41-.69.78-1.12 1.07-.18.12-.38.23-.58.31-.07.04-.14.07-.22.08z"/><path d="m15.84 79.19c.16.02.33.02.49.02h.23c.59-.05 1.14-.3 1.56-.71l.02.11-.16-.04c-.19-.04-.38-.07-.57-.07-.44 0-.87.12-1.25.33-.21.14-.42.29-.61.46.04-.06.08-.12.13-.17.14-.14.29-.27.46-.37.4-.24.86-.38 1.33-.38.18 0 .37.03.55.07l.18.04.11.03-.08.09c-.45.42-1.04.67-1.66.69-.02.01-.05.01-.08.01-.16 0-.31-.02-.46-.05-.07-.01-.13-.03-.19-.06z"/><path d="m26.02 65.54s.06.05.16.16c.09.11.22.26.38.48.39.54.74 1.12 1.03 1.72.3.61.54 1.24.73 1.88.07.26.11.45.14.59.02.08.03.15.03.23-.1-.26-.18-.52-.26-.78-.2-.63-.46-1.26-.75-1.85-.29-.6-.63-1.18-1-1.73-.29-.44-.48-.7-.46-.7z"/><path d="m27.65 68.6c-.04.01-.08.01-.12.01-.03 0-.07 0-.11-.01-.21-.02-.41-.07-.6-.14-.65-.24-1.2-.69-1.56-1.28l-.04-.06-.08-.12.15.02c.67.12 1.28.43 1.78.88.15.13.28.28.4.45.09.11.12.18.12.18-.01 0-.2-.24-.58-.56-.5-.42-1.1-.7-1.74-.82l.07-.1.04.06c.35.57.87 1.01 1.48 1.26.26.09.52.17.79.23z"/><path d="m27.52 67.33c-.03 0 .11-.32.2-.86.05-.28.07-.56.07-.85 0-.03 0-.07 0-.11-.01-.19-.02-.37-.05-.56-.01-.1-.02-.2-.05-.29-.01-.08-.06-.15-.14-.2-.05-.02-.12.02-.15.1-.04.09-.06.19-.07.28-.03.19-.05.37-.06.56v.21c0 .25.01.5.05.75.08.54.21.86.19.86-.05-.06-.08-.14-.11-.21-.07-.21-.13-.42-.17-.64-.06-.28-.09-.56-.09-.84 0-.05 0-.09.01-.13 0-.2.02-.39.05-.58.01-.11.03-.22.06-.32.02-.06.06-.11.11-.15.04-.02.09-.04.14-.04.02 0 .05.01.08.02.11.06.19.16.21.29.03.1.05.2.06.3.02.18.04.37.04.55v.03.03c0 .32-.04.64-.11.95-.04.21-.1.42-.18.63-.02.08-.05.15-.09.22z"/><path d="m28.77 69.14c.18-.16.36-.32.52-.5.39-.44.61-1 .62-1.59l.1.06-.15.08c-.53.34-.93.85-1.11 1.45-.06.26-.11.52-.13.78-.02-.06-.03-.12-.03-.18 0-.01 0-.02 0-.03 0-.02 0-.03 0-.05 0-.18.03-.36.07-.53.16-.64.57-1.2 1.13-1.55l.16-.08.1-.06v.12c-.01.62-.26 1.21-.69 1.65-.12.13-.27.25-.42.35-.05.03-.11.06-.17.08z"/><path d="m17.67 94.73s.06.05.16.16.23.26.38.48c.8 1.08 1.41 2.31 1.78 3.6.07.25.12.45.15.59.01.07.02.15.02.22v.01c-.1-.26-.18-.52-.25-.78-.21-.63-.47-1.26-.76-1.85-.29-.6-.63-1.18-1-1.73-.17-.23-.33-.46-.48-.7z"/><path d="m19.3 97.8c-.04 0-.08.01-.11.01-.04 0-.08-.01-.12-.01-.2-.03-.4-.08-.6-.15-.65-.24-1.19-.69-1.56-1.28l-.03-.06-.08-.12.15.02c.66.12 1.28.43 1.77.88.15.13.29.28.41.45.05.05.08.12.11.18-.02.02-.2-.24-.58-.56-.5-.41-1.1-.7-1.73-.82l.07-.09.03.05c.35.57.87 1.01 1.49 1.26.25.09.52.17.78.24z"/><path d="m19.16 96.52c-.02 0 .11-.32.2-.86.05-.29.07-.57.07-.86 0-.03 0-.07 0-.1 0-.19-.02-.38-.04-.56-.01-.1-.03-.19-.06-.29-.01-.08-.06-.15-.13-.2-.06-.02-.13.02-.16.1-.03.09-.06.19-.07.28-.03.19-.05.38-.06.56v.24c0 .24.02.48.05.72.09.54.22.86.19.86-.05-.06-.08-.14-.1-.21-.08-.21-.14-.42-.18-.64-.06-.27-.08-.55-.08-.83 0-.05 0-.1 0-.14 0-.19.02-.39.05-.58.01-.11.04-.21.08-.31.02-.06.06-.11.12-.15.03-.03.08-.04.12-.04.03 0 .06.01.09.02.11.06.2.17.22.3.03.1.04.2.06.31.02.19.03.38.03.57 0 .33-.03.66-.1.98-.04.21-.11.42-.19.63-.02.07-.06.14-.11.2z"/><path d="m20.43 98.33c.18-.16.35-.32.52-.5.38-.44.6-1 .62-1.59l.1.06-.16.08c-.53.34-.92.85-1.1 1.45-.06.26-.11.52-.13.78-.02-.06-.03-.12-.03-.19 0-.01 0-.01 0-.02s0-.02 0-.04c0-.18.02-.36.06-.54.17-.64.57-1.2 1.13-1.55l.16-.08.11-.06v.12c-.02.62-.27 1.21-.7 1.65-.12.14-.26.25-.42.35-.05.03-.1.06-.16.08z"/><path d="m50.53 65.3c0 .07-.02.15-.05.22-.03.14-.09.33-.18.58-.23.63-.52 1.24-.86 1.81-.34.58-.74 1.13-1.17 1.64-.17.2-.31.35-.42.45-.05.06-.1.11-.17.15.16-.23.34-.45.52-.66.82-1.04 1.5-2.2 2.01-3.43.09-.26.2-.52.32-.76z"/><path d="m48.87 68.35s-.05-.06-.12-.19c-.09-.19-.16-.39-.21-.59-.05-.23-.08-.47-.08-.71 0-.45.09-.89.28-1.3l.03-.06.06-.14.06.14c.2.46.3.95.3 1.44 0 .18-.01.35-.04.53-.03.2-.08.39-.15.58-.05.13-.08.2-.09.2-.01-.01.09-.3.15-.8.01-.13.02-.27.02-.41 0-.51-.1-1.01-.3-1.48h.12l-.03.06c-.19.41-.28.87-.28 1.32 0 .21.01.41.05.61.06.27.14.54.23.8z"/><path d="m49.86 67.53c0-.03.33-.09.83-.31.29-.13.57-.29.83-.47.16-.11.31-.23.45-.35.07-.06.14-.13.21-.2.06-.06.09-.14.09-.22v-.01c0-.06-.08-.09-.17-.07s-.18.05-.26.09c-.46.21-.89.49-1.27.83-.41.37-.6.66-.62.64.03-.08.07-.15.12-.21.13-.18.27-.34.43-.5.24-.23.5-.43.78-.6.17-.1.34-.2.52-.28.09-.04.19-.08.3-.1.02-.01.04-.01.07-.01.04 0 .08.01.12.02.07.03.12.09.14.16v.04c0 .12-.05.22-.12.3-.08.08-.15.15-.23.22-.15.13-.3.24-.46.35-.27.18-.57.34-.87.45-.21.09-.42.15-.63.2-.07.02-.15.03-.22.03-.02 0-.03 0-.04 0z"/><path d="m49.06 69.58c.23.07.46.13.7.17.11.02.22.02.33.02.48 0 .94-.13 1.35-.38v.11l-.16-.08c-.33-.15-.7-.23-1.07-.23-.25 0-.5.04-.74.11-.25.09-.49.19-.72.32-.23.12.05-.06.16-.14.16-.11.34-.2.52-.26.27-.1.56-.15.84-.15.37 0 .73.08 1.07.24l.16.08.1.05-.1.07c-.39.25-.85.38-1.32.38-.15 0-.29-.02-.44-.04-.18-.03-.35-.09-.52-.16-.06-.03-.11-.07-.16-.11z"/><path d="m16.45 72.66c.11-.22.19-.45.26-.69.03-.14.04-.29.04-.44 0-.44-.14-.87-.41-1.23h.11l-.03.03c-.21.24-.35.54-.4.87 0 .07-.01.14-.01.2 0 .2.04.39.11.58.08.23.2.46.33.67-.2-.17-.34-.38-.43-.62-.08-.21-.13-.43-.13-.66 0-.06 0-.12.01-.18.04-.35.19-.68.43-.94l.03-.04.05-.06.05.07c.21.27.35.6.4.94.01.1.02.2.02.3 0 .18-.02.36-.07.53-.05.18-.12.36-.22.52-.09.1-.14.16-.14.15z"/><path d="m29.63 63.22c.22-.11.43-.25.62-.41.43-.38.67-.93.67-1.51 0-.01 0-.03 0-.05l.08.07h-.02c-.32.07-.61.23-.84.47-.18.2-.31.43-.38.69-.07.24-.11.49-.13.74-.02-.1-.03-.21-.03-.32 0-.15.02-.3.06-.44.07-.28.2-.54.39-.76.24-.26.55-.44.89-.52h.04l.08-.01v.08.07c0 .33-.08.64-.23.93-.13.24-.3.46-.52.64-.14.12-.3.22-.48.29-.06.03-.13.04-.2.04z"/><path d="m50.82 62.29c.14-.2.26-.42.35-.65.08-.22.12-.46.12-.69 0-.35-.09-.7-.27-1.01l.1.02-.02.02c-.25.21-.43.49-.52.81-.03.13-.05.26-.05.39 0 .14.02.27.05.4.06.24.14.48.24.71-.17-.19-.28-.43-.33-.69-.04-.15-.07-.3-.07-.46 0-.13.02-.26.05-.38.09-.35.28-.65.54-.89l.03-.02.06-.05.04.07c.17.3.27.64.27.99v.04c0 .26-.05.53-.15.77-.07.18-.17.34-.29.48-.08.1-.14.15-.15.14z"/><path d="m41.68 78.07c.13-.21.25-.42.34-.65.08-.22.12-.46.12-.69 0-.36-.09-.7-.27-1.01l.1.02-.02.01c-.36.31-.56.76-.56 1.23 0 .13.01.26.04.38.06.24.14.48.25.71-.18-.2-.29-.43-.34-.69-.04-.15-.06-.3-.06-.46 0-.13.01-.26.04-.38.09-.35.28-.65.54-.89l.03-.02.06-.05.04.07c.17.3.26.64.26.98v.04c0 .27-.05.53-.15.78-.07.17-.17.34-.29.48-.07.1-.13.14-.13.14z"/><path d="m14.49 99.02c-.08-.24-.19-.46-.32-.67-.33-.49-.86-.82-1.45-.89l.08-.07v.03c.02.32.14.64.34.89.17.21.38.37.62.48.23.1.47.18.72.23-.05 0-.09.01-.13.01-.22 0-.43-.05-.63-.15-.26-.1-.5-.27-.69-.49-.22-.27-.35-.61-.38-.96v-.03-.08h.08c.34.04.67.16.95.37.23.16.42.36.57.6.1.16.17.34.21.52.02.05.03.11.03.16z"/><path d="m46.49 76.74c0-.03.4-.21 1.01-.6.36-.22.67-.51.93-.84.27-.35.42-.78.42-1.22 0-.07-.01-.13-.01-.2-.07-.05.09.07.07.06h-.05-.05c-.03 0-.06 0-.1.01-.03.02-.13.03-.19.05-.13.03-.25.08-.37.13-.22.09-.44.22-.63.38-.32.26-.58.6-.75.98-.15.37-.23.75-.26 1.14-.02-.07-.02-.15-.02-.22 0-.03 0-.07 0-.1.02-.29.08-.58.19-.85.27-.65.78-1.17 1.42-1.45.12-.06.25-.11.39-.14.06-.02.13-.04.2-.05l.1-.02h.06.05s.14.11.07.06c.01.07.01.14.01.21 0 .48-.16.93-.46 1.3-.26.35-.6.63-.97.85-.25.15-.51.28-.77.4-.09.05-.19.09-.29.12z"/><path d="m33.76 98.83c0-.03.4-.21 1.01-.6.36-.22.68-.51.93-.84.27-.35.42-.78.42-1.22 0-.07 0-.14-.01-.2l.08.06h-.03-.02-.05l-.1.01c-.07 0-.13.03-.2.05-.12.03-.24.07-.36.13-.23.09-.44.22-.63.38-.33.26-.58.6-.75.99-.15.35-.24.74-.26 1.12-.02-.07-.03-.14-.03-.21 0-.03 0-.07.01-.1.04-.74.39-1.42.95-1.9.2-.16.42-.3.65-.4.13-.06.26-.11.39-.14.07-.02.14-.04.2-.05.07-.01.07-.01.11-.02h.05.05c-.01-.01.14.11.08.06 0 .07.01.14.01.22 0 .47-.16.93-.46 1.3-.27.34-.6.62-.97.84-.25.15-.52.29-.78.4-.09.05-.19.09-.29.12z"/><path d="m20.38 71.78c0-.02.4-.21 1.01-.59.36-.23.67-.51.93-.85.27-.35.42-.78.42-1.23 0-.06 0-.12-.01-.18-.07-.06.09.06.07.05h-.05-.05c-.03 0-.06 0-.09.02-.04.01-.13.03-.2.05-.12.03-.25.07-.37.12-.22.1-.43.23-.63.38-.32.27-.58.61-.75.99-.15.36-.23.74-.26 1.13-.01-.07-.02-.14-.02-.21 0-.04 0-.07 0-.11.02-.29.08-.58.19-.85.17-.4.43-.76.77-1.03.19-.17.41-.31.65-.41.12-.05.25-.1.39-.14.06-.01.13-.03.2-.05l.1-.01h.06.05l.07.05c.01.07.01.15.01.22 0 .47-.16.93-.45 1.3-.27.34-.6.63-.98.84-.25.15-.51.29-.78.4-.09.05-.18.09-.28.11z"/></g><path d="m30.19 38.45c-.37-2.85-3.02-5.97-8.6-4.67l-5.49 1.78c-.81.14-1.39.84-1.39 1.66v.14l2.04 21.58c.25 2.62 2.44 4.62 5.07 4.62 2.81 0 5.09-2.29 5.09-5.1 0-.07 0-.15 0-.23-.12-2.59-.21-4.67-.2-4.67 0 0 3.61-.85 4.05-5.67.22-2.39-.16-6.27-.57-9.44z" fill="#ffbe9d"/><path d="m28.77 41.74v.05c0 .31-.23.57-.55.61-.03 0-.05 0-.08 0-.3 0-.55-.23-.58-.52-.01-.02-.01-.04-.01-.05 0-.31.24-.58.55-.61.03 0 .06-.01.09-.01.3 0 .55.23.58.53z" fill="#263238"/><path d="m29.59 40.91c-.07.08-.55-.23-1.21-.18s-1.12.41-1.2.33c-.03-.03.03-.18.23-.35.27-.21.61-.34.95-.36.04 0 .08-.01.12-.01.3 0 .6.09.86.25.21.14.29.3.25.32z" fill="#263238"/><path d="m22.47 42.07c0 .01.01.03.01.04 0 .32-.24.58-.56.61-.02.01-.05.01-.08.01-.3 0-.55-.23-.58-.53 0-.01-.01-.03-.01-.04 0-.32.24-.58.55-.61.03-.01.06-.01.09-.01.3 0 .55.23.58.53z" fill="#263238"/><path d="m23.07 41.26c-.07.09-.56-.22-1.21-.18-.66.05-1.12.41-1.2.33-.04-.03.03-.18.23-.35.27-.21.6-.34.95-.36h.11c.31 0 .61.08.87.24.21.15.28.29.25.32z" fill="#263238"/><path d="m25.74 45.82c0-.04.4-.14 1.05-.26.17-.03.33-.08.35-.19 0-.01 0-.01 0-.02 0-.17-.05-.33-.15-.47l-.58-1.25c-.81-1.78-1.41-3.24-1.34-3.27.07-.04.78 1.38 1.6 3.15.19.44.38.86.56 1.26.1.15.14.33.14.51 0 .04 0 .09-.01.14-.04.13-.13.22-.26.26-.09.04-.18.06-.28.06-.66.08-1.08.11-1.08.08z" fill="#263238"/><path d="m26.71 53.57c-.32.02-.66.04-.99.04-1.91 0-3.79-.45-5.49-1.32-1.7-.86 1.83 3.26 6.58 2.49z" fill="#eb996e"/><path d="m25.56 47.41c-.22-.24-.54-.38-.87-.38-.08 0-.15 0-.22.02-.29.04-.55.21-.72.45-.08.11-.12.25-.12.39s.04.27.12.39c.15.14.35.22.56.22.11 0 .22-.02.32-.06.3-.13.58-.31.81-.55.07-.06.13-.13.17-.21.02-.03.03-.07.03-.11s-.01-.09-.04-.13z" fill="#eb996e"/><path d="m23.83 46.39c.11 0 .16.71.8 1.17.65.47 1.4.34 1.41.44 0 .04-.16.15-.48.18-.04 0-.1 0-.15 0-.36 0-.72-.11-1.02-.32-.33-.24-.56-.59-.63-.99-.05-.29.02-.48.07-.48z" fill="#263238"/><path d="m23.08 39.43c-.06.19-.72.15-1.48.29-.77.15-1.38.4-1.49.24-.05-.07.04-.26.28-.43.45-.33.99-.51 1.55-.51.24 0 .48.03.72.1.29.1.44.23.42.31z" fill="#263238"/><path d="m29.28 39.37c-.11.16-.57.03-1.11.06-.55.03-1 .17-1.12.02-.05-.07 0-.23.2-.38.26-.19.57-.3.89-.31h.07c.3 0 .59.09.84.24.2.14.28.29.23.37z" fill="#263238"/><path d="m20.33 34.14c.9 1.44 3.36 1.22 5.05 1.34.4.04.81.02 1.21.08.41.05.79.23 1.08.52.37.39.42.95.62 1.43.41.93 1.31 1.55 2.32 1.6.28 0 .61-.05.73-.31.04-.09.06-.2.06-.3 0-.09-.01-.17-.04-.25-.24-1.25-.52-2.52-1.16-3.62-.75-1.25-1.96-2.17-3.37-2.57-1.39-.38-4.76-.18-6.04.52z" fill="#263238"/><path d="m20.14 32.29c1.7 2.08 1.63 5.41-.16 7.42-1.02 1.14-2.6 2.11-2.57 3.63.03 1.69 2.1 2.77 2.26 4.46.17 1.74-1.73 3.03-1.96 4.76-.18 1.39.76 2.68 1.8 3.64 1.04.95 2.26 1.75 2.95 2.97.76 1.35.74 3.04.26 4.51-.48 1.48-1.36 2.78-2.28 4.02-1.43-.36-2.91-.55-4.39-.55-.01 0-.02 0-.02 0 .04-.56.08-1.13.12-1.7.09.65-.4 1.27-1 1.53-.59.26-1.27.24-1.92.2-1.99-.12-3.99-.44-5.92-.93.73-.88 1.46-1.78 1.86-2.84.41-1.06.42-2.33-.25-3.26-.54-.74-1.44-1.16-1.94-1.93-.75-1.14-.37-2.72.44-3.83.81-1.1 1.97-1.89 2.96-2.83 1-.94 1.88-2.17 1.84-3.54-.06-1.77-1.64-3.25-1.63-5.02 0-2.03 2.02-3.45 2.67-5.36.48-1.39.26-2.82 1.09-4.04.63-.94 1.66-1.54 2.79-1.62 1.08-.05 2.03-.17 3 .31z" fill="#263238"/><path d="m21.1 34.75c0 .03.01.06.01.08 0 .03-.01.06-.01.08-.01.16-.03.31-.06.46-.1.55-.29 1.09-.56 1.59-.39.75-.93 1.41-1.58 1.94-.39.31-.81.57-1.27.78-.49.2-1 .37-1.51.49-.51.11-1 .3-1.46.55-.41.25-.74.63-.93 1.07-.37.85-.43 1.72-.72 2.38-.13.3-.3.58-.5.83-.16.19-.36.34-.57.46-.14.07-.29.11-.45.13-.02.01-.05.01-.08.01-.02 0-.05 0-.08-.01.2-.02.4-.09.58-.18.21-.12.39-.28.54-.46.2-.25.35-.52.47-.82.28-.65.32-1.51.7-2.4.2-.45.54-.84.96-1.1.47-.27.97-.46 1.5-.58.51-.12 1.01-.28 1.49-.48.45-.2.86-.45 1.24-.76.65-.52 1.19-1.16 1.58-1.89.27-.48.47-1.01.59-1.55.09-.4.11-.62.12-.62z" fill="#455a64"/><path d="m33.69 39.69c-.07-.08-.13-.15-.21-.21-.19-.13-.42-.19-.65-.19-.04 0-.07 0-.1 0-.17 0-.36.03-.56.05-.11 0-.22.01-.32.01-.11 0-.22-.01-.33-.01-.5-.04-.99-.17-1.45-.37-.83-.37-1.53-.99-1.99-1.78-.14-.24-.25-.49-.34-.75-.04-.09-.06-.19-.07-.29.14.34.31.67.49.99.47.75 1.16 1.35 1.97 1.71.44.19.92.32 1.4.36.14.01.29.02.44.02h.19c.2 0 .39-.03.57-.03h.05c.26 0 .52.08.73.24.05.05.1.11.14.18.03.04.04.07.04.07z" fill="#455a64"/><path d="m32.88 36.1c-.02 0-.05 0-.07 0-.03 0-.06 0-.08 0-.14-.01-.29-.04-.43-.07-.52-.12-1-.38-1.39-.75-.27-.25-.5-.55-.67-.88-.19-.36-.34-.75-.52-1.15-.18-.42-.44-.79-.78-1.1-.37-.32-.81-.55-1.28-.67-.35-.08-.72-.12-1.08-.12-.58 0-1.16.1-1.71.31-.74.25-1.46.56-2.15.91-.61.29-1.1.52-1.46.64-.17.07-.31.11-.41.14-.04.02-.09.03-.14.04.04-.03.09-.05.13-.07l.4-.16c.35-.14.83-.37 1.43-.68.69-.36 1.42-.69 2.16-.95.56-.22 1.16-.33 1.76-.33.37 0 .74.05 1.1.13.5.12.95.36 1.34.69.34.33.62.72.8 1.16.19.4.33.79.52 1.14.15.32.37.62.63.87.37.37.83.63 1.34.78.35.1.56.1.56.12z" fill="#455a64"/><path d="m14.42 35.14c.01-.09.03-.19.06-.28.09-.25.21-.49.35-.71.63-1 1.73-1.61 2.92-1.61.59 0 1.18.15 1.7.45.23.12.45.28.64.46.07.06.14.13.19.22-.27-.23-.57-.43-.88-.6-.5-.26-1.05-.4-1.62-.4-1.15 0-2.23.57-2.87 1.53-.19.3-.36.62-.49.94z" fill="#455a64"/><path d="m10.96 66.45s.11 0 .31-.06c.3-.06.57-.2.81-.39.37-.3.66-.69.83-1.14.11-.28.18-.58.2-.88.01-.07.01-.14.01-.21 0-.26-.03-.53-.08-.78-.18-.75-.49-1.47-.91-2.11-.44-.71-.98-1.42-1.45-2.24-.25-.42-.45-.87-.6-1.33-.15-.48-.23-.98-.23-1.48 0-.01 0-.02 0-.02.01-1.08.34-2.13.94-3.02.3-.45.67-.85 1.1-1.19.43-.31.88-.58 1.35-.8.45-.21.88-.48 1.27-.78.36-.3.64-.7.81-1.14.16-.51.25-1.05.25-1.59 0-.34-.03-.67-.1-1-.13-.83-.31-1.59-.38-2.3-.03-.22-.04-.45-.04-.68 0-.42.04-.83.13-1.24.09-.48.26-.94.52-1.35.16-.27.39-.49.66-.65.07-.04.14-.07.21-.09.03-.01.06-.02.09-.03.02 0-.11.04-.29.14-.26.16-.47.38-.63.64-.24.42-.41.87-.5 1.34-.07.39-.11.78-.11 1.17 0 .24.01.49.04.73.08.7.26 1.46.41 2.29.07.34.1.7.1 1.05 0 .55-.08 1.1-.25 1.62-.18.46-.47.87-.85 1.19-.4.31-.83.58-1.29.8-.47.23-.91.49-1.33.8-.41.33-.76.72-1.05 1.15-.59.88-.91 1.9-.92 2.95v.02c0 .49.07.98.22 1.44.14.45.34.89.58 1.3.46.81 1 1.53 1.44 2.25.42.65.73 1.38.91 2.14.05.26.07.51.07.77 0 .09 0 .17-.01.26-.02.3-.09.6-.21.88-.18.47-.48.87-.88 1.18-.24.19-.53.32-.83.37-.07.02-.14.02-.22.02-.03 0-.07 0-.1 0z" fill="#455a64"/><path d="m31.74 58.59c.19-.19.34-.42.44-.68.07-.27.11-.56.11-.84 0-.47-.1-.92-.29-1.34-.16-.45-.39-.92-.55-1.46-.09-.28-.15-.58-.17-.87 0-.15 0-.31 0-.46 0-.16.06-.31.09-.47.18-.64.47-1.25.86-1.79.39-.57.83-1.13 1.25-1.73.42-.56.73-1.19.92-1.87.05-.21.07-.43.07-.65 0-.43-.09-.85-.28-1.24-.26-.53-.6-1.03-.99-1.47-.35-.43-.7-.82-.97-1.22-.25-.35-.46-.74-.61-1.14-.12-.31-.18-.63-.19-.96 0-.01 0-.02 0-.03 0-.2.03-.39.08-.59.02-.06.05-.13.08-.2-.07.25-.11.5-.11.75v.07c.02.32.09.63.21.93.16.4.37.77.62 1.12.26.38.62.77.98 1.2.4.45.74.95 1.02 1.49.19.4.29.85.29 1.29 0 .23-.03.46-.08.68-.18.69-.5 1.35-.93 1.92-.42.6-.86 1.16-1.24 1.72-.39.53-.68 1.12-.86 1.75-.03.15-.07.3-.08.45-.02.15 0 .3-.02.44.02.29.07.57.15.84.16.54.38 1.01.54 1.47.18.41.27.85.27 1.3 0 .31-.04.63-.13.93-.08.19-.19.37-.33.52-.04.04-.08.07-.12.11-.01.01-.02.02-.03.03z" fill="#455a64"/><path d="m5.05 63.31c-.05-.07-.08-.14-.1-.22-.05-.13-.07-.28-.07-.42 0-.09.01-.17.03-.26.06-.36.21-.7.41-.99.23-.36.55-.72.82-1.16.28-.5.42-1.05.42-1.62v-.01c0-.66-.05-1.31-.14-1.96-.05-.29-.07-.58-.07-.87 0-.44.05-.89.16-1.33.23-.76.65-1.45 1.23-2 .56-.55 1.16-1.06 1.79-1.53.57-.44 1.12-.93 1.64-1.45.97-.98 1.68-2.04 1.99-3.05.14-.45.23-.91.26-1.38.01-.13.01-.27.01-.4 0-.22-.01-.45-.03-.67-.02-.14-.03-.27-.04-.38-.02-.12-.03-.21-.05-.29l-.02-.17c0-.01-.01-.02-.01-.03s.01-.02.01-.03c.01.01.01.03.01.05l.04.18c.02.07.04.17.06.28s.04.24.06.39c.03.27.04.54.04.81v.26c-.03.48-.11.95-.24 1.41-.31 1.03-1.02 2.11-2 3.11-.5.53-1.06 1.02-1.63 1.47-.63.46-1.23.97-1.79 1.51s-.98 1.21-1.21 1.95c-.1.43-.15.87-.15 1.31 0 .28.02.56.06.84.09.65.14 1.32.14 1.98-.01.58-.16 1.16-.44 1.66-.28.46-.61.81-.84 1.16-.21.29-.36.61-.43.96-.02.1-.03.2-.03.3 0 .13.01.25.04.36.03.15.07.22.07.23z" fill="#455a64"/><path d="m18.43 67.55c.24-.32.44-.66.61-1.02.2-.42.33-.86.4-1.31.05-.28.07-.56.07-.83 0-1.09-.35-2.14-1.01-3-.52-.68-1.08-1.32-1.68-1.93-.67-.67-1.22-1.47-1.61-2.33-.2-.47-.31-.98-.31-1.49.01-.53.15-1.04.41-1.5.52-.93 1.3-1.63 1.82-2.44.27-.39.46-.84.55-1.3.05-.24.07-.48.07-.73 0-.21-.02-.42-.05-.63-.15-.84-.41-1.65-.78-2.41-.33-.68-.62-1.38-.87-2.08-.46-1.3-.33-2.5 0-3.19.11-.27.27-.52.48-.73.06-.08.14-.15.22-.21.09-.06-.07.07-.2.22-.19.22-.35.48-.45.75-.3.69-.42 1.85.05 3.14.25.69.55 1.38.88 2.05.38.77.66 1.59.81 2.44.03.22.05.44.05.66 0 .25-.02.5-.07.75-.09.48-.29.94-.57 1.34-.54.84-1.31 1.53-1.81 2.43-.25.44-.39.94-.4 1.45v.01c0 .49.09.97.28 1.42.39.86.92 1.64 1.58 2.31.6.61 1.17 1.26 1.68 1.94.45.61.77 1.31.91 2.05.06.31.09.63.09.95 0 .77-.17 1.53-.51 2.23-.12.26-.28.51-.46.75l-.14.18z" fill="#455a64"/><path d="m17.73 83.24 4.45-10.71 14.92 6.83-8.33 19.33-15.16-5.51z" fill="#ff725e"/><path d="m17.73 83.24 4.45-10.71 14.92 6.83-8.33 19.33-15.16-5.51z" fill-opacity=".301961"/><path d="m37.1 79.36-8.33 19.33 2.99 1.07 8.22-19.01z" fill="#ff725e"/><path d="m37.1 79.36-8.33 19.33 2.99 1.07 8.22-19.01z" fill-opacity=".501961"/><path d="m24.33 73.33 1.02-2.05 13.94 6.76-.71 1.82z" fill="#e0e0e0"/><path d="m22.77 72.8.4-.93 15.9 7.49-.29.81z" fill="#fafafa"/><path d="m37.46 83.2c.03.02-1.17 2.96-2.69 6.58s-2.78 6.54-2.81 6.52 1.17-2.96 2.69-6.58c1.51-3.61 2.77-6.53 2.81-6.52z" fill="#fff"/><path d="m23.71 76.89.05.02.14.06.55.24 2.07.92 7.29 3.28.06.03-.03.05c-.87 2.01-1.84 4.22-2.85 6.55l-.03.06-.06-.03h-.02l-9.94-4.23-.05-.02.02-.05c.85-2.1 1.56-3.82 2.04-5.03.25-.59.44-1.05.57-1.37l.15-.36c.01-.04.03-.08.05-.11.02-.04-.01.04-.04.13-.04.08-.09.21-.15.37-.12.33-.31.8-.54 1.4-.47 1.2-1.15 2.92-1.98 5.01l-.03-.07 9.95 4.21h.02l-.09.04c1.02-2.33 1.99-4.54 2.87-6.55l.04.09-7.23-3.32-2.07-.97-.56-.26-.14-.07z" fill="#fff"/><path d="m31.22 85.61c-.03-.06-.07-.13-.09-.21l-.23-.6c-.2-.54-.47-1.28-.79-2.16l.07.04-2.79.91-.05.02-.03-.05-.24-.37-.85-1.43.08.03-3.28 1.27-.96.35c-.11.05-.23.09-.35.12.11-.06.22-.12.34-.16l.94-.39 3.26-1.3.05-.02.03.05.87 1.41c.08.13.17.26.24.38l-.08-.03 2.8-.89.05-.02.02.05.75 2.18c.08.26.15.46.2.61.02.07.04.14.04.21z" fill="#fff"/><path d="m28.5 81.37s-.02-.05-.04-.13c-.04-.11-.12-.21-.21-.28-.09-.06-.19-.1-.3-.1-.06 0-.13.01-.19.04-.19.07-.32.26-.32.47s.13.4.32.47c.06.02.12.04.19.04.1 0 .21-.04.3-.1.09-.07.17-.17.21-.28.02-.08.03-.13.04-.13s.02.05 0 .14c-.02.14-.1.26-.2.35-.11.08-.25.13-.39.13-.07 0-.13-.01-.2-.03-.25-.09-.42-.32-.42-.59s.17-.5.42-.59c.07-.02.14-.03.2-.03.14 0 .28.04.39.13.1.09.18.21.2.34.02.09.01.15 0 .15z" fill="#fff"/><path d="m35.86 78.82s-1.02-1.98-2.85-1.31c-.72.26-2.34 5.13-2.34 5.13l1.04-.33.65 1.08s2.07-5.11 2.39-5.06z" fill="#ff725e"/><path d="m30.81 89.56c-.15-.04-.3-.08-.44-.14l-1.18-.45c-.99-.37-2.36-.9-3.86-1.5-1.51-.59-2.86-1.14-3.85-1.54l-1.16-.48c-.15-.05-.29-.11-.42-.19.15.04.3.09.44.15l1.18.44c.99.38 2.36.91 3.86 1.5 1.51.59 2.86 1.14 3.85 1.54l1.16.48c.14.05.28.12.42.19z" fill="#fff"/><path d="m30.2 90.39c-.15-.03-.3-.08-.44-.14l-1.18-.44c-.99-.38-2.36-.91-3.86-1.5-1.51-.6-2.86-1.14-3.86-1.54l-1.15-.47c-.15-.05-.29-.12-.42-.19.15.04.3.08.44.14l1.18.45c.99.37 2.35.9 3.86 1.5 1.51.59 2.86 1.13 3.85 1.53l1.16.48z" fill="#fff"/><path d="m29.86 91.51c-.14-.03-.29-.08-.43-.14l-1.18-.44c-.99-.38-2.36-.91-3.87-1.51-1.5-.59-2.86-1.14-3.85-1.54l-1.16-.48c-.14-.05-.28-.11-.41-.19.15.04.29.09.44.15l1.17.44c1 .37 2.36.9 3.87 1.5 1.51.59 2.85 1.14 3.84 1.54l1.16.48c.15.05.29.12.42.19z" fill="#fff"/><path d="m22.91 88.46 2.25 1.13s1.79-.87 2.68-1 4.72.36 4.72.36v.12c0 .42-.27.79-.67.92-.34.1-2.23-.01-2.23-.01-.21.18-.33.44-.33.71 0 .39.24.74.59.88.96.4 2.08.87 2.21.95.13.09 1.52-.16 2.55-.36.61-.13 1.06.66.58 1.07-.04.04-.1.07-.16.08-.05.01.93.55-.66 1.24 0 0-.54 1.24-1.54 1.33 0 0-1.16 1.17-1.89 1.36-.72.19-5.45-1.61-5.45-1.61l-4.59-2.39z" fill="#ffbe9d"/><path d="m30.87 97.25c-1.04 0-5.27-1.61-5.31-1.63l-4.6-2.38 1.95-4.78 2.24 1.12c.08-.03 1.82-.87 2.67-1 .12-.01.25-.02.37-.02h.06c1.29 0 4.27.38 4.3.39.01.03.01.07.01.11 0 .42-.28.79-.68.92-.33.11-2.15 0-2.23-.01-.2.18-.32.44-.32.71 0 .05 0 .1.01.15.05.33.27.6.57.72.93.39 2.08.87 2.21.96.12.08 1.01-.06 2.54-.37.05-.01.09-.01.14-.01.25 0 .48.15.59.38.04.08.07.18.07.27 0 .17-.08.33-.21.44-.04.04-.09.07-.15.08.16.09.25.26.26.43-.01.28-.33.55-.93.82-.11.22-.24.43-.4.63-.27.37-.68.62-1.14.69-.05.05-1.18 1.18-1.89 1.36-.04.01-.08.02-.12.02-.01 0-.01 0-.01 0zm-9.9-4.02 4.59 2.38c.05.02 4.27 1.62 5.31 1.62h.01c.05 0 .09 0 .13-.01.72-.19 1.87-1.35 1.89-1.36.45-.07.86-.32 1.13-.69.16-.19.29-.41.39-.63.6-.26.92-.53.94-.8-.01-.18-.11-.34-.26-.43h-.02.02c.06-.02.11-.04.16-.08.12-.11.19-.27.19-.43 0-.09-.02-.19-.06-.27-.11-.23-.34-.37-.59-.37-.04 0-.08 0-.12.01-.79.18-1.61.31-2.42.38 0 .01-.02.01-.03.01-.03 0-.07-.01-.11-.03-.1-.06-.87-.39-2.2-.95-.36-.15-.59-.5-.59-.88 0-.28.12-.54.33-.72.02 0 1.89.12 2.22.01.3-.08.53-.31.62-.6.03-.1.05-.22.05-.33 0-.03 0-.06 0-.09-.14-.01-3.02-.38-4.3-.38-.01 0-.03 0-.04 0-.13 0-.26.01-.38.02-.88.13-2.66.99-2.68 1l-2.24-1.12-1.94 4.74z" fill="#eb996e"/><path d="m29.46 93.09c.22.2.46.37.73.5.62.37 1.32.61 2.04.67.73-.01 1.44-.19 2.08-.55.27-.11.53-.27.75-.46-.28.07-.56.18-.82.32-.62.29-1.31.45-2 .46-.69-.06-1.36-.27-1.98-.59-.25-.15-.52-.27-.8-.35z" fill="#eb996e"/><path d="m29.26 94.33c-.02.02.21.25.65.49.25.14.52.26.8.36.33.14.68.21 1.04.21h.04c.36-.04.72-.12 1.06-.24l.82-.27c.26-.07.52-.17.75-.31-.27.02-.53.07-.78.15-.24.06-.52.14-.84.23-.33.1-.67.17-1.02.21h-.01c-.34 0-.67-.06-.98-.17-.27-.09-.54-.2-.8-.32-.46-.2-.71-.37-.73-.34z" fill="#eb996e"/><path d="m29.15 95.77c-.03.09.81.41 1.84.74.08.02.17.03.25.03.07 0 .14-.01.2-.02.13-.02.25-.05.38-.08.2-.06.41-.14.6-.23.33-.16.5-.32.48-.34-.19.04-.37.11-.54.19-.2.07-.4.13-.6.17-.11.03-.23.05-.35.07-.06.01-.11.02-.17.02s-.12-.01-.17-.02c-.52-.17-1-.3-1.35-.39-.18-.07-.37-.12-.57-.14z" fill="#eb996e"/><path d="m9.41 59.44s-2.63 1.69-4.21 6.38c-1.34 3.98-4.13 10.4-5.05 14.98-.67 3.34.91 7.28 5.06 8.41l15.75 4.73 2.4-5.91-14.12-7.18 3.87-8.82z" fill="#ff725e"/><path d="m3.81 88.68c.03 0 .06.01.09.02l.26.07.97.29 3.62 1.08 12.24 3.74-.08.04 1.53-3.76c.3-.73.59-1.45.88-2.15l.03.08c-2.96-1.46-5.7-2.88-8.09-4.12-2.39-1.25-4.46-2.3-6.04-3.09-.19-.04-.39-.05-.58-.05-.34 0-.68.05-1 .17-.38.13-.73.32-1.04.58-.11.08-.22.18-.32.28-.08.07-.15.15-.22.23l-.13.14c-.03.03-.04.05-.04.05 0-.01 0-.02.03-.06l.13-.15c.06-.08.13-.16.21-.23.1-.11.2-.2.32-.29.31-.27.66-.47 1.04-.61.33-.12.69-.19 1.05-.19.19 0 .38.02.56.06 1.6.78 3.66 1.81 6.07 3.05 2.4 1.23 5.13 2.64 8.08 4.1l.06.03-.02.06-.88 2.15-1.51 3.77-.03.05-.05-.01-12.24-3.78-3.6-1.13-.97-.31-.26-.08-.07-.03z" fill="#263238"/><path d="m13.77 67.33c.03.04.04.09.05.14.04.13.07.27.09.41.04.26.06.52.06.78s-.02.52-.06.78c-.12.76-.32 1.5-.61 2.22-.31.81-.71 1.67-1.11 2.59-.81 1.82-1.56 3.46-2.09 4.68l-.65 1.4c-.07.15-.13.28-.18.38-.02.05-.05.09-.07.13.01-.05.02-.1.04-.14l.16-.39c.15-.35.36-.83.61-1.42.52-1.22 1.25-2.86 2.05-4.67.41-.92.81-1.78 1.13-2.58.29-.71.5-1.45.63-2.21.05-.3.07-.6.07-.91 0-.2-.01-.41-.03-.62-.02-.18-.05-.32-.06-.41-.02-.06-.02-.11-.03-.16z" fill="#263238"/><path d="m6.68 69.41c.02 0 .06.31.16.81.11.66.28 1.31.48 1.94.21.63.46 1.25.75 1.85.13.24.26.5.36.75.11.26-.05-.06-.13-.18s-.19-.3-.31-.52c-.64-1.19-1.06-2.48-1.25-3.81-.03-.26-.06-.47-.06-.61-.01-.04-.01-.07-.01-.11s0-.08.01-.12z" fill="#fafafa"/><path d="m7.65 72.74c.15-.23.28-.47.4-.71.17-.4.26-.83.26-1.26 0-.23-.02-.46-.07-.68l-.02-.07.13.03c-.38.53-.62 1.15-.68 1.79-.05.5 0 .81-.03.81-.02-.07-.04-.14-.04-.21-.02-.14-.03-.27-.03-.41 0-.06 0-.13 0-.19.05-.68.28-1.32.66-1.87l.09-.13.04.15.01.07c.05.22.07.44.07.67 0 .46-.1.92-.3 1.34-.09.18-.2.36-.33.52-.09.1-.15.16-.16.15z" fill="#fafafa"/><path d="m6.87 71.73c-.08-.01-.16-.04-.23-.08-.2-.09-.39-.2-.58-.32-.27-.18-.52-.39-.75-.63-.13-.14-.26-.29-.37-.44-.07-.08-.13-.17-.18-.26-.04-.07-.07-.15-.07-.23 0-.04.01-.09.02-.13.04-.07.1-.11.17-.13h.06c.05 0 .09.01.13.03.09.04.18.1.26.17.16.11.31.24.44.37.24.23.45.49.63.76.12.18.22.38.31.58.04.07.07.15.08.23-.03 0-.15-.31-.47-.76-.19-.26-.4-.5-.63-.72-.14-.12-.28-.24-.44-.36-.07-.05-.15-.11-.24-.15-.08-.04-.16-.02-.18.04-.01.02-.01.04-.01.07 0 .06.02.12.05.17.05.08.1.16.16.24.3.41.67.77 1.09 1.07.44.32.76.46.75.48z" fill="#fafafa"/><path d="m7.22 73.91c-.06.03-.13.05-.19.06-.16.03-.31.05-.47.05-.02 0-.05 0-.08 0-.61-.03-1.2-.28-1.64-.71l-.09-.08.12-.03.17-.05c.18-.04.37-.06.55-.06.47 0 .94.13 1.34.38.16.1.32.23.45.37.09.11.13.17.13.18-.2-.17-.41-.33-.63-.46-.39-.21-.82-.32-1.25-.32-.19 0-.37.02-.56.06l-.17.04.03-.11c.42.41.97.66 1.56.71h.1c.21 0 .42-.01.63-.03z" fill="#fafafa"/><path d="m8.57 87.3s.07-.04.2-.1.33-.14.57-.22c1.19-.41 2.44-.62 3.69-.62.09 0 .19 0 .28.01.26 0 .46.02.61.03.07.01.15.02.22.04-.19.02-.38.03-.57.03-.08 0-.17 0-.26-.01-.66.01-1.34.07-1.99.17-.66.1-1.31.25-1.95.44-.48.14-.78.25-.8.23z" fill="#fafafa"/><path d="m11.99 86.66c-.01.08-.03.15-.07.22-.08.18-.19.36-.32.52-.42.55-1.01.94-1.68 1.11l-.07.02-.15.03.07-.13c.32-.59.79-1.09 1.37-1.43.17-.11.36-.19.55-.26.06-.03.14-.05.21-.05 0 .02-.29.11-.71.38-.55.36-.99.84-1.3 1.42l-.07-.1.06-.02c.65-.16 1.22-.52 1.65-1.03.16-.22.32-.45.46-.68z" fill="#fafafa"/><path d="m10.74 86.42c-.02.02-.28-.2-.78-.45-.28-.15-.57-.27-.87-.35-.18-.06-.36-.1-.55-.13-.1-.02-.19-.03-.29-.03-.01-.01-.02-.01-.04-.01-.07 0-.14.03-.19.08-.04.05-.02.12.05.18.07.05.16.1.24.14.17.09.34.16.52.23.3.11.61.19.93.23.54.09.88.06.88.08-.07.03-.15.04-.23.04h-.01c-.07 0-.15.01-.23.01-.14 0-.28-.01-.43-.03-.32-.04-.64-.11-.95-.22-.18-.06-.36-.13-.54-.22-.09-.04-.18-.1-.26-.16-.05-.04-.09-.1-.11-.16 0-.02-.01-.04-.01-.06 0-.06.02-.11.06-.15.07-.08.18-.12.29-.12h.04c.11.01.21.02.31.04.19.03.38.08.57.14.31.09.61.22.9.38.19.11.37.23.55.37.05.05.1.11.15.17z" fill="#fafafa"/><path d="m12.84 85.75c-.09-.23-.2-.45-.32-.66-.3-.5-.78-.88-1.33-1.07l.09-.08c0 .06.02.12.03.18.16.6.53 1.13 1.05 1.48.23.14.46.26.7.36-.07 0-.14-.01-.21-.04-.19-.05-.37-.13-.54-.24-.57-.34-.98-.89-1.14-1.53 0-.07-.03-.13-.04-.18l-.02-.11.11.03c.58.2 1.07.61 1.37 1.15.09.16.16.33.21.51.02.06.04.12.04.19z" fill="#fafafa"/><path d="m11.33 70.38c.11-.22.19-.45.26-.69.03-.14.04-.29.04-.43 0-.45-.14-.88-.41-1.23h.1l-.02.02c-.26.3-.41.68-.41 1.08 0 .2.03.39.1.57.09.24.2.46.33.68-.19-.17-.33-.39-.41-.64-.09-.21-.14-.43-.14-.65 0-.06.01-.12.01-.18.05-.35.19-.68.43-.95l.02-.02.05-.06.05.06c.21.28.35.6.4.94.01.1.02.21.02.31 0 .17-.02.35-.07.53-.04.18-.12.35-.22.51-.08.11-.13.16-.13.15z" fill="#fafafa"/><path d="m17.09 89.44c.11-.22.2-.45.26-.69.03-.14.05-.29.05-.44 0-.44-.15-.88-.41-1.23h.1l-.02.02c-.27.3-.42.69-.42 1.09 0 .19.04.39.11.57.09.23.2.46.33.67-.2-.17-.34-.39-.42-.64-.09-.21-.14-.43-.14-.65 0-.06.01-.12.01-.18.05-.35.2-.68.43-.95l.02-.02.05-.06.05.06c.22.28.35.6.4.94.02.1.02.21.02.31 0 .17-.02.35-.07.52-.04.19-.12.36-.22.52-.07.12-.12.17-.13.16z" fill="#fafafa"/><path d="m3.03 80.3c-.02-.02.39-.21 1.01-.6.35-.22.67-.51.92-.84.28-.35.43-.78.43-1.23 0-.06-.01-.12-.01-.19-.07-.05.09.07.07.06h-.05-.05c-.03 0-.06 0-.1.02l-.19.04c-.13.04-.25.08-.37.13-.23.1-.44.23-.63.38-.32.27-.58.6-.75.99-.15.36-.24.74-.26 1.13-.02-.07-.03-.14-.03-.21 0-.04.01-.08.01-.11.01-.29.08-.58.19-.85.16-.4.43-.76.76-1.04.3-.25.66-.44 1.04-.54.07-.02.14-.04.21-.05l.1-.02h.05.05l.08.06c.01.07.01.14.01.21 0 .48-.16.94-.46 1.3-.27.35-.6.63-.97.85-.25.15-.52.29-.78.4-.09.05-.19.08-.28.11z" fill="#fafafa"/><path d="m99.33 59.32c.25.32 1.25.45 2.31.36-.21-.43.09-.95.59-.95 1.43 0 2.19.13 2.33.78.27 1.21-2.33 1.51-3.59 1.51-1.09 0-2.16-.22-2.68-.9-2.45-3.21-2.43-9.66-2.41-15.91.01-3.36.28-6.54-.1-9.01-.22-1.45-.98-2.45-1.76-2.97-1.16-.77-2.68-.34-3.33-.19-.02.01-.05.02-.07.02-1.5.41-.28 2.04-.16 3.76.07.98-.45 1.68-1.17 2.36l.59.59c.35.35.35.91 0 1.26l-1.96 1.96c.1.25.04.55-.16.75l-.06.06c-.27.27-.71.27-.98 0l-.37-.37-1.3 1.3c-.12.12-.32.12-.45 0l-.03-.03c-.12-.12-.12-.33 0-.45l1.3-1.3-1.42-1.41-1.29 1.29c-.13.13-.33.13-.46.01l-.02-.03c-.13-.13-.13-.33 0-.45l1.29-1.3-.36-.37c-.27-.27-.27-.71 0-.98l.06-.06c.2-.21.5-.26.75-.16l.29-.28 1.68-1.68c.35-.34.91-.34 1.25 0l.72.72c.79-.69.98-1.01.56-2.45-.46-1.58-.7-3.43 1.26-3.98.03-.01.07-.03.11-.04.84-.21 2.82-.72 4.46.36 1.1.73 2.05 2.03 2.33 3.87.39 2.56.13 5.79.11 9.2-.02 6.03-.04 12.26 2.14 15.11z" fill="none" stroke="#fff" stroke-miterlimit="22.9256" stroke-width=".21"/><path d="m82.49 47.89c.13.36-.06.76-.42.89l-1.1.4c-.23.08-.47.04-.65-.1l-.55.2-1.46.54c-.46.16-.97-.07-1.14-.53l-.31-.87c-1.18.43-2.39.75-4.1.62-3.55-.28-6.34 1.09-6.34 4.65v.08c.1 4.42 4.88 9.62 3.3 12.12-.5.8-1.53 1.18-3.15 1.18-.63 0-1.94 0-1.96-.92-.03-1.01 2.32-1.59 2.35-.45v.05c.88-.04 1.45-.23 1.66-.56.96-1.52-3.51-7.14-3.51-11.5-.04-4.34 3.48-6.3 7.75-5.96 1.46.11 2.66-.21 3.55-.53l-.33-.89c-.16-.46.07-.97.53-1.13l1.46-.54.48-.17c-.03-.31.15-.62.45-.73l1.11-.4c.36-.13.75.06.88.42z" fill="none" stroke="#fff" stroke-miterlimit="22.9256" stroke-width=".21"/><path d="m79.66 40.4-3.51-5.39" style="stroke:#ccc;stroke-width:.17;stroke-linecap:round;stroke-linejoin:round;stroke-miterlimit:22.9256;fill:none"/><path d="m78.35 41.1-2.88-2.43-.05.86-2.61-1.19" style="stroke:#ccc;stroke-width:.17;stroke-linecap:round;stroke-linejoin:round;stroke-miterlimit:22.9256;fill:none"/><path d="m84.11 46.84 3.52 5.4" style="stroke:#ccc;stroke-width:.17;stroke-linecap:round;stroke-linejoin:round;stroke-miterlimit:22.9256;fill:none"/><path d="m85.42 46.15 2.89 2.43.05-.86 2.6 1.18" style="stroke:#ccc;stroke-width:.17;stroke-linecap:round;stroke-linejoin:round;stroke-miterlimit:22.9256;fill:none"/><path d="m44.08 24.89c0 .15-.1.47-.29.98-.29.75-.47 1.26-.56 1.53-.19.65-.29 1.23-.29 1.72-.02.01-.07.01-.14.03-.07.01-.13.01-.16.01-.02 0-.07 0-.14-.01-.04-.04-.07-.08-.09-.12 0 0-.02-.05-.04-.14-.03-.09-.1-.17-.22-.24-.12-.06-.2-.15-.25-.26-.21-.48-.38-.91-.52-1.28-.19-.48-.34-.92-.45-1.31-.25.38-.49.88-.72 1.49-.2.52-.4 1.04-.59 1.56-.06.12-.14.19-.26.19-.06 0-.11-.01-.14-.01-.04-.01-.06-.02-.08-.02.14-.4.31-.83.5-1.3.15-.35.34-.78.57-1.31.29-.67.48-1.1.56-1.3.03-.08.09-.16.15-.22.07-.07.14-.1.23-.1.04.35.12.75.23 1.23.13.56.28 1.06.46 1.49.21.52.42.85.64 1 .06-.18.18-.57.37-1.17s.32-.98.38-1.15c.15-.39.3-.76.48-1.12.03-.07.08-.11.14-.13.06-.03.14-.04.23-.04zm3.33 2.04c0 .6-.28 1.13-.83 1.58-.54.44-1.12.66-1.74.66-.19 0-.34-.04-.44-.12s-.15-.2-.15-.38c0-.42.27-.91.8-1.49.54-.58 1.02-.87 1.44-.87.25 0 .45.04.61.12.21.11.31.27.31.5zm-.28.17c0-.18-.06-.3-.18-.38s-.27-.12-.46-.12c-.32 0-.72.25-1.19.77-.47.51-.71.93-.71 1.26 0 .2.11.3.34.3.45 0 .92-.19 1.41-.58.53-.42.79-.83.79-1.25zm6.54-2.64c-.07.06-.21.12-.39.17-.19.04-.3.08-.35.11-.11.05-.27.38-.48.97-.19.51-.37 1.08-.54 1.73-.18.64-.28 1.05-.31 1.23.05.01.1.02.15.03h.18c.11 0 .22 0 .32-.01.32-.03.49-.04.53-.04l.15.02c-.24.14-.55.25-.94.34s-.74.13-1.06.13c-.19 0-.34-.02-.44-.06-.1-.05-.17-.11-.21-.19.08-.02.15-.04.23-.05.08-.02.17-.02.28-.02.14-.02.24-.06.32-.14s.13-.18.16-.32c.07-.31.19-.7.38-1.16.23-.59.37-.98.43-1.16.14-.45.21-.85.21-1.19-.12.01-.25.03-.37.04-.11 0-.19-.05-.25-.16.35-.09.61-.16.79-.2.32-.08.59-.12.81-.12.14 0 .27.02.4.05zm4.09 1.9c-.07.16-.16.34-.25.51-.16.29-.31.58-.46.86-.14.38-.27.75-.41 1.13-.04.08-.07.13-.1.17-.05.06-.1.1-.16.1-.12 0-.25-.15-.39-.44-.09-.17-.21-.46-.37-.88-.14-.37-.24-.59-.28-.66-.1.24-.23.48-.38.73-.16.25-.31.49-.46.73-.19.31-.34.55-.43.73-.04-.02-.07-.03-.1-.04-.08-.04-.14-.06-.19-.07.03-.08.05-.15.08-.21.04-.06.08-.14.15-.22.14-.2.29-.44.44-.7.13-.22.25-.45.38-.71.04-.08.16-.33.36-.74.04-.09.08-.16.11-.19.06-.07.13-.1.21-.1.15 0 .22.08.22.25 0 .35.06.68.17.99.04.11.18.42.41.91.32-.68.58-1.2.77-1.58.18-.38.34-.59.46-.63.04 0 .07.01.11.02.01 0 .05.02.11.04zm3.96.23-.16.02c-.07 0-.19-.02-.36-.04-.17-.03-.29-.04-.34-.04-.1 0-.24.01-.43.03-.18.03-.32.05-.4.07-.07.21-.14.42-.21.63-.16.46-.29.86-.4 1.18-.15.44-.23.67-.23.69-.13 0-.26-.02-.4-.06.04-.12.2-.5.49-1.16.21-.48.31-.88.31-1.21-.28 0-.63.06-1.05.17-.43.11-.7.17-.81.17-.15 0-.25-.06-.32-.17.97-.22 1.56-.35 1.76-.39.7-.13 1.3-.2 1.78-.2.19 0 .34.01.44.05.17.05.28.13.33.26zm2.7-.52-.95.26c-.35.07-.7.14-1.06.2-.32.11-.48.37-.48.79 0 .08.01.15.01.2l.01.08c.23 0 .48-.02.74-.06.1-.01.51-.08 1.21-.22-.06.19-.31.33-.74.4-.69.12-1.07.19-1.15.21-.4.15-.6.4-.6.78 0 .07.03.12.09.15.05.03.13.05.21.05.2 0 .51-.05.92-.15.42-.1.73-.15.94-.15h.17c-.26.19-.58.32-.94.4-.3.07-.64.1-1.02.1-.12 0-.24 0-.37-.01-.14 0-.28-.02-.44-.03 0-.17.01-.33.05-.46.03-.13.08-.3.16-.48.27-.61.55-1.22.83-1.83.03-.09.06-.16.1-.21.04-.04.1-.07.19-.07.07 0 .19.02.35.06s.28.06.35.06c.11 0 .29-.04.53-.12s.42-.12.53-.12c.09 0 .16.01.22.04.06.02.1.07.14.13zm2.86.64c0 .25-.17.46-.52.63-.34.17-.51.3-.51.39 0 .08.13.36.4.81.14.23.31.52.53.86l-.14.01c-.2 0-.38-.15-.54-.46-.38-.73-.65-1.11-.81-1.15-.06.02-.14.06-.24.12-.07.05-.17.08-.29.08-.17 0-.3.19-.4.57-.09.37-.24.56-.44.56l-.13-.01c.02-.06.11-.31.29-.74.2-.49.37-.91.52-1.25.16-.4.26-.63.28-.68.1-.15.25-.24.46-.28.12-.03.31-.04.58-.04.22 0 .42.04.6.13.24.11.36.26.36.45zm-.28.04c0-.11-.08-.2-.25-.27-.16-.07-.31-.1-.45-.1-.32 0-.6.15-.82.46-.21.28-.31.59-.31.93.37-.09.72-.21 1.07-.36.5-.22.76-.44.76-.66zm4.38-.39c-.07.16-.15.34-.25.51-.15.29-.3.58-.46.86-.13.38-.27.75-.41 1.13-.03.08-.06.13-.09.17-.05.06-.11.1-.17.1-.11 0-.24-.15-.39-.44-.08-.17-.21-.46-.37-.88-.14-.37-.23-.59-.28-.66-.1.24-.23.48-.38.73s-.3.49-.45.73c-.2.31-.34.55-.44.73-.03-.02-.07-.03-.1-.04-.07-.04-.13-.06-.18-.07.02-.08.05-.15.08-.21s.08-.14.14-.22c.14-.2.29-.44.45-.7.12-.22.25-.45.38-.71.04-.08.15-.33.35-.74.04-.09.08-.16.12-.19.06-.07.13-.1.2-.1.15 0 .23.08.23.25 0 .35.05.68.16.99.04.11.18.42.41.91.33-.68.58-1.2.77-1.58s.34-.59.46-.63c.04 0 .08.01.11.02.02 0 .06.02.11.04zm3.56-.29-.95.26c-.35.07-.7.14-1.06.2-.31.11-.47.37-.47.79v.2l.01.08c.23 0 .48-.02.74-.06.1-.01.51-.08 1.21-.22-.06.19-.3.33-.74.4-.69.12-1.07.19-1.15.21-.4.15-.6.4-.6.78 0 .07.03.12.09.15s.13.05.21.05c.2 0 .51-.05.92-.15.42-.1.73-.15.94-.15h.17c-.26.19-.58.32-.94.4-.3.07-.64.1-1.02.1-.12 0-.24 0-.37-.01-.13 0-.28-.02-.44-.03 0-.17.02-.33.05-.46s.08-.3.16-.48c.28-.61.55-1.22.83-1.83.03-.09.06-.16.1-.21.04-.04.1-.07.19-.07.08 0 .19.02.36.06.15.04.27.06.34.06.11 0 .29-.04.53-.12s.42-.12.54-.12c.08 0 .15.01.21.04.06.02.11.07.14.13zm3.63.52-.17.02c-.07 0-.19-.02-.36-.04-.17-.03-.28-.04-.34-.04-.09 0-.23.01-.42.03-.19.03-.32.05-.41.07-.07.21-.14.42-.21.63-.15.46-.29.86-.4 1.18-.15.44-.22.67-.22.69-.13 0-.27-.02-.41-.06.04-.12.2-.5.49-1.16.21-.48.32-.88.32-1.21-.28 0-.63.06-1.06.17-.42.11-.69.17-.8.17-.15 0-.26-.06-.32-.17.97-.22 1.55-.35 1.75-.39.7-.13 1.3-.2 1.79-.2.19 0 .33.01.44.05.16.05.27.13.33.26zm1.58-2.37c0 .17-.08.46-.22.86-.15.39-.29.79-.44 1.17-.16.47-.26.84-.3 1.13-.1 0-.17 0-.2.01-.04.01-.1.04-.2.1.04-.21.17-.61.4-1.2.11-.3.19-.54.23-.72.07-.31.14-.62.21-.94.04-.18.09-.32.15-.42.09-.16.2-.25.33-.27.03.11.04.2.04.28zm-1.34 4.43c0 .1-.04.18-.13.23-.1.06-.2.09-.31.09-.09 0-.17-.02-.23-.07-.06-.04-.09-.11-.09-.2 0-.1.04-.19.14-.26.09-.07.2-.11.3-.11.09 0 .16.03.23.09.06.06.09.14.09.23z" fill="#fff" fill-rule="nonzero"/></svg>